<?xml version="1.0" encoding="UTF-8"?>
<!-- Created with Inkscape (http://www.inkscape.org/) -->
<svg id="svg3869" xmlns:rdf="http://www.w3.org/1999/02/22-rdf-syntax-ns#" width="22" xmlns:cc="http://creativecommons.org/ns#" height="22" version="1.1" xmlns="http://www.w3.org/2000/svg" viewBox="0 0 22 22" xmlns:dc="http://purl.org/dc/elements/1.1/">
 <defs id="defs3871">
  <style id="current-color-scheme" type="text/css">.ColorScheme-Text {
        color:#31363b;
      }
      .ColorScheme-Background {
        color:#eff0f1;
      }
      .ColorScheme-Highlight {
        color:#3daee9;
      }
      .ColorScheme-ViewText {
        color:#31363b;
      }
      .ColorScheme-ViewBackground {
        color:#fcfcfc;
      }
      .ColorScheme-ViewHover {
        color:#93cee9;
      }
      .ColorScheme-ViewFocus{
        color:#3daee9;
      }
      .ColorScheme-ButtonText {
        color:#31363b;
      }
      .ColorScheme-ButtonBackground {
        color:#eff0f1;
      }
      .ColorScheme-ButtonHover {
        color:#93cee9;
      }
      .ColorScheme-ButtonFocus{
        color:#3daee9;
      }</style>
 </defs>
 <metadata id="metadata3874">
  <rdf:RDF>
   <cc:Work rdf:about="">
    <dc:format>image/svg+xml</dc:format>
    <dc:type rdf:resource="http://purl.org/dc/dcmitype/StillImage"/>
    <dc:title/>
   </cc:Work>
  </rdf:RDF>
 </metadata>
 <g id="layer1" transform="translate(-326 -534.36)">
  <g id="akonadi">
   <path id="path4154" class="ColorScheme-Text" d="m11 3a8 2 0 0 0 -8 2v3.9941 0.0059 3.994a8 2 0 0 0 0 0.006v4a8 2 0 0 0 8 2 8 2 0 0 0 8 -2v-4-4-4a8 2 0 0 0 -8 -2zm0 1a7 1 0 0 1 7 1 7 1 0 0 1 -7 1 7 1 0 0 1 -7 -1 7 1 0 0 1 7 -1zm7 1.9629v2.0703 0.9668a7 1 0 0 1 -7 1 7 1 0 0 1 -7 -1v-0.9629-2.0703a8 2 0 0 0 7 1.0332 8 2 0 0 0 7 -1.0371zm0 4v2.0703 0.967a7 1 0 0 1 -7 1 7 1 0 0 1 -7 -1v-0.963-2.0702a8 2 0 0 0 0.42188 0.16992 8 2 0 0 0 1.0332 0.30469 8 2 0 0 0 0.59766 0.12891 8 2 0 0 0 0.070312 0.01367 8 2 0 0 0 0.58789 0.10352 8 2 0 0 0 0.69336 0.09961 8 2 0 0 0 0.00195 0 8 2 0 0 0 0.17773 0.01953 8 2 0 0 0 0.51758 0.05664 8 2 0 0 0 0.30664 0.02539 8 2 0 0 0 0.49023 0.04102 8 2 0 0 0 0.74219 0.04101 8 2 0 0 0 0.039063 0.002 8 2 0 0 0 0.75391 0.02149 8 2 0 0 0 0.566 0.006 8 2 0 0 0 0.799 -0.01 8 2 0 0 0 1.564 -0.08 8 2 0 0 0 0.752 -0.068 8 2 0 0 0 3.877 -0.8752 8 2 0 0 0 0.008 -0.0039zm0 4.0001v3.037a7 1 0 0 1 -7 1 7 1 0 0 1 -7 -1v-3.0332a8 2 0 0 0 0.42188 0.16992 8 2 0 0 0 1.0332 0.30469 8 2 0 0 0 0.59766 0.12891 8 2 0 0 0 0.070312 0.01367 8 2 0 0 0 0.58789 0.10352 8 2 0 0 0 0.69336 0.09961 8 2 0 0 0 0.00195 0 8 2 0 0 0 0.17773 0.01953 8 2 0 0 0 0.51758 0.05664 8 2 0 0 0 0.30664 0.02539 8 2 0 0 0 0.49023 0.04102 8 2 0 0 0 0.74219 0.04101 8 2 0 0 0 0.039063 0.002 8 2 0 0 0 0.75391 0.02149 8 2 0 0 0 0.566 0.006 8 2 0 0 0 0.79883 -0.0098 8 2 0 0 0 1.5645 -0.08008 8 2 0 0 0 0.75195 -0.06836 8 2 0 0 0 3.877 -0.875 8 2 0 0 0 0.0078 -0.0039z" fill="#ffffff" transform="translate(326 534.36)"/>
   <rect id="rect4148" height="22" width="22" fill="none" x="326" y="534.36"/>
  </g>
 </g>
</svg>
