<?xml version="1.0" encoding="UTF-8"?>
<svg id="svg" xmlns="http://www.w3.org/2000/svg" height="100%" width="100%" xmlns:dc="http://purl.org/dc/elements/1.1/" xmlns:cc="http://creativecommons.org/ns#" version="1.1" viewBox="0 0 22 22" xmlns:rdf="http://www.w3.org/1999/02/22-rdf-syntax-ns#">
 <defs id="defs81">
  <style id="current-color-scheme" type="text/css">.ColorScheme-Text {
        color:#7B7C7E;
      }
      .ColorScheme-Background{
        color:#EFF0F1;
      }
      .ColorScheme-Highlight{
        color:#3DAEE6;
      }
      .ColorScheme-ViewText {
        color:#7B7C7E;
      }
      .ColorScheme-ViewBackground{
        color:#FCFCFC;
      }
      .ColorScheme-ViewHover {
        color:#3DAEE6;
      }
      .ColorScheme-ViewFocus{
        color:#1E92FF;
      }
      .ColorScheme-ButtonText {
        color:#7B7C7E;
      }
      .ColorScheme-ButtonBackground{
        color:#EFF0F1;
      }
      .ColorScheme-ButtonHover {
        color:#3DAEE6;
      }
      .ColorScheme-ButtonFocus{
        color:#1E92FF;
      }</style>
 </defs>
 <metadata id="metadata34">
  <rdf:RDF>
   <cc:Work rdf:about="">
    <dc:format>image/svg+xml</dc:format>
    <dc:type rdf:resource="http://purl.org/dc/dcmitype/StillImage"/>
    <dc:title/>
   </cc:Work>
  </rdf:RDF>
 </metadata>
 <g id="akregator" transform="translate(0,-2)">
  <rect id="rect3009" width="22" fill="#fff" height="22" fill-opacity="0.01" y="2" x="0"/>
  <path id="path120" fill="#ffffff" d="m5.3896 16.219c-1.3196 0-2.3896 1.071-2.3896 2.391 0 1.318 1.07 2.39 2.3896 2.39s2.3896-1.0721 2.3896-2.3897c0-1.3203-1.07-2.3917-2.3896-2.3917zm-2.3896-6.2342v2.4952c4.7056 0 8.5197 3.8141 8.5197 8.52h2.4926c-0.001-6.082-4.9311-11.015-11.013-11.015zm0-4.9848v2.492c7.459 0 13.507 6.047 13.507 13.508h2.493c0-8.838-7.164-16-16-16" class="ColorScheme-Text"/>
 </g>
</svg>
