<?xml version="1.0" encoding="UTF-8"?>
<!-- Created with Inkscape (http://www.inkscape.org/) -->
<svg id="svg3869" xmlns="http://www.w3.org/2000/svg" viewBox="0 0 22 22" xmlns:rdf="http://www.w3.org/1999/02/22-rdf-syntax-ns#" xmlns:cc="http://creativecommons.org/ns#" height="22" version="1.1" xmlns:dc="http://purl.org/dc/elements/1.1/" width="22">
 <defs id="defs3871">
  <style id="current-color-scheme" type="text/css">.ColorScheme-Text {
        color:#31363b;
      }
      .ColorScheme-Background {
        color:#eff0f1;
      }
      .ColorScheme-Highlight {
        color:#3daee9;
      }
      .ColorScheme-ViewText {
        color:#31363b;
      }
      .ColorScheme-ViewBackground {
        color:#fcfcfc;
      }
      .ColorScheme-ViewHover {
        color:#93cee9;
      }
      .ColorScheme-ViewFocus{
        color:#3daee9;
      }
      .ColorScheme-ButtonText {
        color:#31363b;
      }
      .ColorScheme-ButtonBackground {
        color:#eff0f1;
      }
      .ColorScheme-ButtonHover {
        color:#93cee9;
      }
      .ColorScheme-ButtonFocus{
        color:#3daee9;
      }</style>
 </defs>
 <metadata id="metadata3874">
  <rdf:RDF>
   <cc:Work rdf:about="">
    <dc:format>image/svg+xml</dc:format>
    <dc:type rdf:resource="http://purl.org/dc/dcmitype/StillImage"/>
    <dc:title/>
   </cc:Work>
  </rdf:RDF>
 </metadata>
 <g id="layer1" transform="translate(-326 -534.36)">
  <g id="amarok">
   <path id="path4187" transform="translate(326 534.36)" fill="#ffffff" d="m11 3a8 8 0 0 0 -0.818 0.041c-0.8072 0.082-1.5775 0.2843-2.2953 0.5879a8 8 0 0 0 -0.00195 0.00195c-0.2455 0.104-0.4846 0.2187-0.7168 0.3458a8 8 0 0 0 -0.085938 0.052734c-0.1985 0.1118-0.3946 0.2277-0.5821 0.3555a8 8 0 0 0 -0.2266 0.1699c-0.1315 0.0966-0.2634 0.1925-0.3886 0.2969a8 8 0 0 0 -0.2969 0.2695c-0.0931 0.0858-0.1884 0.1697-0.2774 0.2598a8 8 0 0 0 -0.2578 0.2832c-0.0906 0.1008-0.1841 0.1992-0.2695 0.3047a8 8 0 0 0 -0.2285 0.3066c-0.0792 0.1078-0.1586 0.2144-0.2324 0.3262a8 8 0 0 0 -0.1758 0.2871c-0.0833 0.1385-0.1653 0.278-0.2403 0.4218a8 8 0 0 0 -0.1152 0.2383c-0.0737 0.1537-0.145 0.3079-0.209 0.4668a8 8 0 0 0 -0.1074 0.291c-0.0543 0.1517-0.1071 0.3033-0.1523 0.459a8 8 0 0 0 -0.0762 0.291c-0.0408 0.1634-0.0788 0.3271-0.1094 0.4942a8 8 0 0 0 -0.0449 0.3047c-0.0218 0.1515-0.0435 0.3025-0.0566 0.4565a8 8 0 0 0 -0.0352 0.688c0 0.24537 0.013076 0.48705 0.035156 0.72656a8 8 0 0 0 0.033203 0.25781c0.016224 0.12935 0.036242 0.25741 0.058594 0.38477a8 8 0 0 0 0.26367 1.0859c0.00327 0.01014 0.0045 0.02113 0.00781 0.03125 0.004 0.0128 0.00957 0.02441 0.013672 0.03711 0.00872 0.02622 0.022234 0.05009 0.03125 0.07617a8 8 0 0 0 0.3457 0.844c0.00338 0.0071 0.00637 0.01444 0.00977 0.02149 0.0344 0.0714 0.067096 0.1427 0.10352 0.21289 0.00175 0.0034 0.0041 0.0064 0.00586 0.0098a8 8 0 0 0 0.20117 0.36133c0.00045 0.000764 0.0015 0.0012 0.00195 0.002 0.0451 0.0766 0.091112 0.15354 0.13867 0.22852 0.00661 0.0104 0.012902 0.02087 0.019531 0.03125a8 8 0 0 0 0.20508 0.30664 8 8 0 0 0 0.099609 0.13281c0.024783 0.03257 0.049353 0.06511 0.074219 0.09766 0.00816 0.01067 0.01725 0.02057 0.025391 0.03125a8 8 0 0 0 0.36133 0.43945c0.00907 0.0098 0.018401 0.01936 0.027344 0.0293 0.00371 0.0041 0.008 0.0076 0.011719 0.01172a8 8 0 0 0 0.55273 0.55469c0.064993 0.06062 0.12954 0.12204 0.19727 0.17969 0.026512 0.02252 0.054994 0.04262 0.082031 0.06445a8 8 0 0 0 0.35156 0.27148c0.044466 0.0331 0.087471 0.06751 0.13281 0.09961 0.039743 0.0281 0.080954 0.05462 0.12109 0.08203a8 8 0 0 0 0.39062 0.24805c0.035927 0.02128 0.071247 0.04353 0.10742 0.06445 0.0819 0.0473 0.16238 0.09619 0.24609 0.14062 0.012816 0.0068 0.026212 0.01277 0.039063 0.01953a8 8 0 0 0 0.27344 0.13086c0.095197 0.04585 0.18771 0.09686 0.28516 0.13867 0.007 0.003 0.014084 0.0066 0.021484 0.0098 0.0371 0.0157 0.075901 0.02777 0.11328 0.04297 0.00838 0.0034 0.017004 0.0064 0.025391 0.0098a8 8 0 0 0 0.30664 0.11133c0.074488 0.02672 0.14701 0.0576 0.22266 0.08203 0.057201 0.01844 0.11581 0.03445 0.17383 0.05078a8 8 0 0 0 0.35547 0.09375c0.062111 0.0156 0.12276 0.03484 0.18555 0.04883 0.12275 0.0273 0.2463 0.05457 0.37109 0.07617a8 8 0 0 0 0.011719 0.002c0.030188 0.0054 0.059453 0.01076 0.089844 0.01563 0.1827 0.0292 0.36808 0.05176 0.55469 0.06836 0.03319 0.0031 0.06625 0.0054 0.09961 0.0078a8 8 0 0 0 0.615 0.026c0.17259 0 0.3438-0.0066 0.51367-0.01758 0.0188-0.001 0.03794-0.0039 0.05664-0.0059 0.02056-0.0014 0.04004-0.0062 0.06055-0.0078a8 8 0 0 0 0.57031 -0.07031c0.06448-0.01015 0.1294-0.0176 0.19336-0.0293a8 8 0 0 0 0.62305 -0.13867c0.02051-0.0054 0.04205-0.0082 0.0625-0.01367 0.01121-0.003 0.02201-0.0067 0.0332-0.0098a8 8 0 0 0 0.55469 -0.17578c0.028-0.0099 0.05613-0.01908 0.08398-0.0293a8 8 0 0 0 0.56055 -0.22852 8 8 0 0 0 1.623 -0.98828 8 8 0 0 0 0.02734 -0.01953c0.0033-0.0026 0.0065-0.0052 0.0098-0.0078a8 8 0 0 0 0.40625 -0.34961c0.04887-0.04438 0.09677-0.0892 0.14453-0.13476a8 8 0 0 0 0.3418 -0.34375c0.04829-0.05198 0.09372-0.1069 0.14062-0.16016a8 8 0 0 0 0.3125 -0.36914c0.04993-0.06406 0.09458-0.13166 0.14258-0.19727a8 8 0 0 0 0.23242 -0.32422c0.0026-0.0039 0.0053-0.0078 0.0078-0.01172a8 8 0 0 0 0.14062 -0.23828c0.08176-0.13476 0.16248-0.27032 0.23633-0.41016a8 8 0 0 0 0.11719 -0.24023c0.07147-0.14713 0.1406-0.29525 0.20313-0.44727a8 8 0 0 0 0.0918 -0.23438c0.06451-0.1722 0.12306-0.34777 0.17578-0.52539a8 8 0 0 0 0.05273 -0.17773c0.06542-0.24103 0.12124-0.48481 0.16406-0.73438 0.04137-0.24106 0.07062-0.48639 0.08984-0.73438a8 8 0 0 0 0.025 -0.627 8 8 0 0 0 -0.01 -0.295 7.5 7.5 0 0 1 -0.004 0.059c-0.036-1.2075-0.336-2.3476-0.849-3.3636 0.00047-0.00023 0.0049-0.00195 0.0059-0.00195 0.18504-0.21856 0.28125-0.46828 0.28125-0.71094 0-0.17523-0.0682-0.35571-0.12891-0.49219 0.00029 0.00026 0.0059 0.00391 0.0059 0.00391s-0.0012-0.12383-0.07617-0.29883c-0.075-0.175-0.17383-0.30078-0.17383-0.30078s-0.2375 0.0375-0.375 0.0625c-0.1297 0.0236-0.47319 0.21373-0.51367 0.23633-1.4291-1.7246-3.5698-2.8296-5.9708-2.8867a7.5 7.5 0 0 1 0.02344 -0.00195 8 8 0 0 0 -0.215 -0.0098zm0.19922 0.40039a7.4 7.4 0 0 1 5.6055 2.582c-0.77174 0.19072-1.9869 0.63393-2.4121 0.74023-0.49498 0.12374-0.72583 0.23538-1.5195 0.16016-0.90469-0.0857-1.3109-0.092837-1.5488-0.085937-0.35634-0.0315-0.53711-0.10938-0.53711-0.10938l0.03125 0.35156c-0.236 0.1806-0.712 0.4427-1.692 0.7089-0.6364 0.0707-1.1662-0.124-1.4844 0.0528s-1.3272 0.6184-1.8398 0.7422c-0.5127 0.1237-0.892 0.3563-1.2012 0.457-0.48839 0.1591 0.96756 2.4941 1.5996 2.8008 0 0-0.21757 0.22591-0.40039 0.41602-0.43969 0.30041-0.78711 0.32031-0.78711 0.32031l0.023437 0.24024c-0.2096 0.112-0.4058 0.188-0.5878 0.252a7.5 7.5 0 0 1 -0.4473 -2.529 7.5 7.5 0 0 1 1.1035 -3.8945 7.4 7.4 0 0 1 6.0955 -3.2051zm6.6504 4.166a7.4 7.4 0 0 1 0.75 3.2344 7.4 7.4 0 0 1 -3.3242 6.1719 7.5 7.5 0 0 1 -2.0664 0.82422c0.03056-0.23452 0.06104-0.47459 0.08399-0.71289 0.17366-0.25517 0.40625-0.25976 0.40625-0.25976s-0.29922-0.84961-0.26953-1.873c0.0372-0.24274 0.09976-0.47192 0.17969-0.68945h0.30273s-0.0378-0.41741 0.13281-0.8418c0.56207-0.85425 1.3289-1.4245 1.6562-1.6758 0.30878-0.2371 1.7327-0.60118 2.0332-0.67188 0.30052-0.0707 0.58388-0.54803 0.60156-0.68945 0.0177-0.14142-0.08984-0.40625-0.08984-0.40625l-0.42578-0.095703c0.10584 0.075 0.04519 0.15025-0.13281 0.18164-0.057 0.0101-0.13605 0.01483-0.22461 0.01563 0 0-0.09271-0.36355-0.19336-0.39453-0.0861-0.0265-0.31235 0.25788-0.30859 0.35547-0.0963-0.0163-0.18793-0.03765-0.26172-0.064453-0.274-0.1003-0.573-0.1624-0.573-0.1624s0.29961-0.67539 0.72461-1.3379c0.27092-0.42232 0.70796-0.73025 1-0.9082zm-5.4844 0.15625c0.48595-0.004 0.84766 0.14062 0.84766 0.14062s0.04719 0.4553-1.3184 1.2715c-0.41865 0.25021-1.5195 0.41602-1.5195 0.41602s-0.0236-0.57531 0.39453-1.0742c0.49929-0.5958 1.1098-0.74945 1.5957-0.75391zm-6.2712 1.2676c0.045-0.001 0.0804 0.0028 0.1054 0.0098 0.2 0.0625 0.6375 0.8578 0.4004 1.199l0.4004 0.401c0.8-0.8 1.9938-0.24277 2.1992 0.30078 0.28473 0.75329 0.22551 0.66371-0.95508 0.83594-0.5003 0.073-1.5209-0.10834-1.9238-0.41797-0.4029-0.31-1.4391-1.9502-1.3515-2.0378 0.0766-0.0766 0.8091-0.2825 1.125-0.291zm11.508 0.59961c-0.0675 0.0241-0.12891 0.30859-0.12891 0.30859s0.0522 0.027988 0.32227-0.00781c0.0727-0.0181-0.12584-0.32486-0.19336-0.30078z" class="ColorScheme-Text"/>
   <rect id="rect3344" x="326" height="22" y="534.36" opacity=".25" fill="none" width="22"/>
  </g>
 </g>
</svg>
