<?xml version="1.0" encoding="UTF-8"?>
<!-- Created with Inkscape (http://www.inkscape.org/) -->
<svg id="svg7229" xmlns:rdf="http://www.w3.org/1999/02/22-rdf-syntax-ns#" viewBox="0 0 22 22" height="22" xmlns="http://www.w3.org/2000/svg" xmlns:dc="http://purl.org/dc/elements/1.1/" xmlns:cc="http://creativecommons.org/ns#" width="22" version="1.0">
 <defs id="defs7231">
  <style id="current-color-scheme" type="text/css">.ColorScheme-Text {
        color:#31363b;
      }
      .ColorScheme-Background{
        color:#eff0f1;
      }
      .ColorScheme-ViewText {
        color:#31363b;
      }
      .ColorScheme-ViewBackground{
        color:#ffffff;
      }
      .ColorScheme-ViewHover {
        color:#000000;
      }
      .ColorScheme-ViewFocus{
        color:#5a5a5a;
      }
      .ColorScheme-ButtonText {
        color:#31363b;
      }
      .ColorScheme-ButtonBackground{
        color:#E9E8E8;
      }
      .ColorScheme-ButtonHover {
        color:#1489ff;
      }
      .ColorScheme-ButtonFocus{
        color:#2B74C7;
      }</style>
  <style id="style6214" type="text/css">.ColorScheme-Text {
        color:#31363b;
      }
      .ColorScheme-Background {
        color:#eff0f1;
      }
      .ColorScheme-Highlight {
        color:#3daee9;
      }
      .ColorScheme-ViewText {
        color:#31363b;
      }
      .ColorScheme-ViewBackground {
        color:#fcfcfc;
      }
      .ColorScheme-ViewHover {
        color:#93cee9;
      }
      .ColorScheme-ViewFocus{
        color:#3daee9;
      }
      .ColorScheme-ButtonText {
        color:#31363b;
      }
      .ColorScheme-ButtonBackground {
        color:#eff0f1;
      }
      .ColorScheme-ButtonHover {
        color:#93cee9;
      }
      .ColorScheme-ButtonFocus{
        color:#3daee9;
      }</style>
 </defs>
 <metadata id="metadata7234">
  <rdf:RDF>
   <cc:Work rdf:about="">
    <dc:format>image/svg+xml</dc:format>
    <dc:type rdf:resource="http://purl.org/dc/dcmitype/StillImage"/>
    <dc:title/>
   </cc:Work>
  </rdf:RDF>
 </metadata>
 <g id="layer1" transform="translate(-214.54 -404.51)">
  <g id="audio-volume-high">
   <rect id="rect4208" y="404.51" fill="none" width="22" x="214.54" height="22"/>
   <path id="path4226" d="m10.988 3-4.988 4.9902v0.0098 1 4 1 0.01l4.988 4.99h1.012v-0.402-15.196-0.402h-1.012zm-7.988 5v1 4 1h2v-1-4-1h-2z" fill="#fff" transform="translate(214.54 404.51)" class="ColorScheme-Text"/>
   <path id="path4183" d="m14.324 7.2812-0.539 0.8614a4 4 0 0 1 1.215 2.8574 4 4 0 0 1 -1.211 2.861l0.53906 0.86328a5 5 0 0 0 1.672 -3.724 5 5 0 0 0 -1.676 -3.7188z" fill="#fff" transform="translate(214.54 404.51)" class="ColorScheme-Text"/>
   <path id="path4188" d="m13.865 3.5371-0.24414 0.97656a7 7 0 0 1 4.379 6.4863 7 7 0 0 1 -4.381 6.479l0.24414 0.97461a8 8 0 0 0 5.137 -7.454 8 8 0 0 0 -5.135 -7.4629z" fill="#fff" transform="translate(214.54 404.51)" class="ColorScheme-Text"/>
  </g>
  <g id="audio-volume-medium" transform="translate(22)">
   <rect id="rect4167" y="404.51" fill="none" width="22" x="214.54" height="22"/>
   <path id="path4169" d="m10.988 3-4.988 4.9902v0.0098 1 4 1 0.01l4.988 4.99h1.012v-0.402-15.196-0.402h-1.012zm-7.988 5v1 4 1h2v-1-4-1h-2z" fill="#fff" transform="translate(214.54 404.51)" class="ColorScheme-Text"/>
   <path id="path4171" d="m14.324 7.2812-0.539 0.8614a4 4 0 0 1 1.215 2.8574 4 4 0 0 1 -1.211 2.861l0.53906 0.86328a5 5 0 0 0 1.672 -3.724 5 5 0 0 0 -1.676 -3.7188z" fill="#fff" transform="translate(214.54 404.51)" class="ColorScheme-Text"/>
   <path id="path4173" d="m13.865 3.5371-0.24414 0.97656a7 7 0 0 1 4.379 6.4863 7 7 0 0 1 -4.381 6.479l0.24414 0.97461a8 8 0 0 0 5.137 -7.454 8 8 0 0 0 -5.135 -7.4629z" opacity=".5" fill="#fff" transform="translate(214.54 404.51)" class="ColorScheme-Text"/>
  </g>
  <g id="audio-volume-low" transform="translate(44)">
   <rect id="rect4177" y="404.51" fill="none" width="22" x="214.54" height="22"/>
   <path id="path4179" d="m10.988 3-4.988 4.9902v0.0098 1 4 1 0.01l4.988 4.99h1.012v-0.402-15.196-0.402h-1.012zm-7.988 5v1 4 1h2v-1-4-1h-2z" fill="#fff" transform="translate(214.54 404.51)" class="ColorScheme-Text"/>
   <path id="path4181" d="m14.324 7.2812-0.539 0.8614a4 4 0 0 1 1.215 2.8574 4 4 0 0 1 -1.211 2.861l0.53906 0.86328a5 5 0 0 0 1.672 -3.724 5 5 0 0 0 -1.676 -3.7188z" opacity=".5" fill="#fff" transform="translate(214.54 404.51)" class="ColorScheme-Text"/>
   <path id="path4184" d="m13.865 3.5371-0.24414 0.97656a7 7 0 0 1 4.379 6.4863 7 7 0 0 1 -4.381 6.479l0.24414 0.97461a8 8 0 0 0 5.137 -7.454 8 8 0 0 0 -5.135 -7.4629z" opacity=".5" fill="#fff" transform="translate(214.54 404.51)" class="ColorScheme-Text"/>
  </g>
  <g id="audio-volume-muted" transform="translate(66)">
   <rect id="rect4188" y="404.51" fill="none" width="22" x="214.54" height="22"/>
   <path id="path4190" d="m10.988 3-4.988 4.9902v0.0098 1 4 1 0.01l4.988 4.99h1.012v-0.402-15.196-0.402h-1.012zm-7.988 5v1 4 1h2v-1-4-1h-2z" fill="#da4453" transform="translate(214.54 404.51)"/>
   <path id="path4192" d="m14.324 7.2812-0.539 0.8614a4 4 0 0 1 1.215 2.8574 4 4 0 0 1 -1.211 2.861l0.53906 0.86328a5 5 0 0 0 1.672 -3.724 5 5 0 0 0 -1.676 -3.7188z" fill="#da4453" transform="translate(214.54 404.51)"/>
   <path id="path4194" d="m13.865 3.5371-0.24414 0.97656a7 7 0 0 1 4.379 6.4863 7 7 0 0 1 -4.381 6.479l0.24414 0.97461a8 8 0 0 0 5.137 -7.454 8 8 0 0 0 -5.135 -7.4629z" fill="#da4453" transform="translate(214.54 404.51)"/>
  </g>
 </g>
</svg>
