<?xml version="1.0" encoding="UTF-8"?>
<svg id="svg14997" xmlns:cc="http://creativecommons.org/ns#" xmlns="http://www.w3.org/2000/svg" xmlns:dc="http://purl.org/dc/elements/1.1/" width="24" height="24" version="1.1" xmlns:rdf="http://www.w3.org/1999/02/22-rdf-syntax-ns#">
 <metadata id="metadata15003">
  <rdf:RDF>
   <cc:Work rdf:about="">
    <dc:format>image/svg+xml</dc:format>
    <dc:type rdf:resource="http://purl.org/dc/dcmitype/StillImage"/>
    <dc:title/>
   </cc:Work>
  </rdf:RDF>
 </metadata>
 <g id="bangarang">
  <rect id="rect16227" y="0" width="24" fill-opacity="0" height="24" x="0"/>
  <path id="path21241" fill="#ffffff" d="m8.8149 3.0036s-0.94118 0-0.94118 0.93527 0.035291 12.422 0.035291 12.422-3.8132 0.30379-3.8 2.5428c0.013556 2.3052 1.8415 2.1347 2.8634 2.0691 1.1376-0.073 2.7837-0.93642 2.7837-2.5426v-2.876h10.353v-1.3269h-0.33529v-1.286h0.33529v-1.5198h-0.94117v-4.6763h0.94117v-0.93527h-0.33529v-1.8705h0.33529v-0.93527zm0.98235 1.1457h1.5412c0.0088 0 0.01764 0.016198 0.01764 0.035072v1.5198c0 0.018875-0.0089 0.035072-0.01764 0.035072h-1.5412c-0.00874 0-0.017645-0.016198-0.017645-0.035072v-1.5198c0-0.018875 0.00893-0.035072 0.017645-0.035072zm2.4706 0h1.5412c0.0087 0 0.01765 0.016198 0.01765 0.035072v1.5198c0 0.018875-0.0089 0.035072-0.01765 0.035072h-1.5412c-0.0087 0-0.01765-0.016198-0.01765-0.035072v-1.5198c0-0.018875 0.0089-0.035072 0.01765-0.035072zm5.0588 0h1.5412c0.0087 0 0.01766 0.016198 0.01766 0.035072v1.5198c0 0.018875-0.0089 0.035072-0.01766 0.035072h-1.5412c-0.0087 0-0.01765-0.016198-0.01765-0.035072v-1.5198c0-0.018875 0.0089-0.035072 0.01765-0.035072zm-2.5647 0.023384h1.5412c0.0087 0 0.01764 0.016198 0.01764 0.035072v1.5198c0 0.018875-0.0089 0.035072-0.01764 0.035072h-1.5412c-0.0087 0-0.01765-0.016198-0.01765-0.035072v-1.5198c0-0.018875 0.0089-0.035072 0.01765-0.035072zm-5.0647 2.5018h8.1176c0.04589 0 0.08235 0.050547 0.08235 0.11106v4.8751c0 0.06051-0.03647 0.11106-0.08235 0.11106h-8.1176c-0.04588 0-0.082351-0.05055-0.082351-0.11106v-4.8751c0-0.060517 0.036472-0.11106 0.082351-0.11106zm0.076466 6.1728h1.5412c0.0087 0 0.01764 0.01619 0.01764 0.03508v1.5198c0 0.01887-0.0089 0.03508-0.01764 0.03508h-1.5412c-0.00874 0-0.017646-0.01619-0.017646-0.03508v-1.5198c0-0.01887 0.00893-0.03508 0.017646-0.03508zm2.4706 0h1.5412c0.0087 0 0.01765 0.01619 0.01765 0.03508v1.5198c0 0.01887-0.0089 0.03508-0.01765 0.03508h-1.5412c-0.0087 0-0.01765-0.01619-0.01765-0.03508v-1.5198c0-0.01887 0.0089-0.03508 0.01765-0.03508zm5.0588 0h1.5412c0.0087 0 0.01764 0.01619 0.01764 0.03508v1.5198c0 0.01887-0.0089 0.03508-0.01764 0.03508h-1.5412c-0.0087 0-0.01765-0.01619-0.01765-0.03508v-1.5198c0-0.01887 0.0089-0.03508 0.01765-0.03508zm-2.5647 0.02338h1.5412c0.0087 0 0.01765 0.01619 0.01765 0.03508v1.5198c0 0.01888-0.0089 0.03508-0.01765 0.03508h-1.5412c-0.0087 0-0.01764-0.01619-0.01764-0.03508v-1.5198c0-0.01887 0.0089-0.03508 0.01764-0.03508z"/>
 </g>
</svg>
