<?xml version="1.0" encoding="UTF-8" standalone="no"?>
<!-- Created with Inkscape (http://www.inkscape.org/) -->

<svg
   xmlns:dc="http://purl.org/dc/elements/1.1/"
   xmlns:cc="http://creativecommons.org/ns#"
   xmlns:rdf="http://www.w3.org/1999/02/22-rdf-syntax-ns#"
   xmlns:svg="http://www.w3.org/2000/svg"
   xmlns="http://www.w3.org/2000/svg"
   xmlns:sodipodi="http://sodipodi.sourceforge.net/DTD/sodipodi-0.dtd"
   xmlns:inkscape="http://www.inkscape.org/namespaces/inkscape"
   id="svg7229"
   height="22"
   viewBox="0 0 22 22"
   width="22"
   version="1.0"
   inkscape:version="0.91+devel r"
   sodipodi:docname="battery.svg">
  <sodipodi:namedview
     pagecolor="#ffffff"
     bordercolor="#666666"
     borderopacity="1"
     objecttolerance="10"
     gridtolerance="10"
     guidetolerance="10"
     inkscape:pageopacity="0"
     inkscape:pageshadow="2"
     inkscape:window-width="640"
     inkscape:window-height="480"
     id="namedview131"
     showgrid="false"
     inkscape:pagecheckerboard="true"
     inkscape:zoom="1.8095975"
     inkscape:cx="-58.999999"
     inkscape:cy="-2.0000098"
     inkscape:current-layer="svg7229" />
  <defs
     id="defs7231">
    <style
       id="current-color-scheme"
       type="text/css">.ColorScheme-Text {
        color:#31363b;
      }
      .ColorScheme-Background{
        color:#eff0f1;
      }
      .ColorScheme-ViewText {
        color:#31363b;
      }
      .ColorScheme-ViewBackground{
        color:#ffffff;
      }
      .ColorScheme-ViewHover {
        color:#000000;
      }
      .ColorScheme-ViewFocus{
        color:#5a5a5a;
      }
      .ColorScheme-ButtonText {
        color:#31363b;
      }
      .ColorScheme-ButtonBackground{
        color:#E9E8E8;
      }
      .ColorScheme-ButtonHover {
        color:#1489ff;
      }
      .ColorScheme-ButtonFocus{
        color:#2B74C7;
      }</style>
    <style
       id="style5"
       type="text/css">.ColorScheme-Text {
        color:#31363b;
      }
      .ColorScheme-Background {
        color:#eff0f1;
      }
      .ColorScheme-Highlight {
        color:#3daee9;
      }
      .ColorScheme-ViewText {
        color:#31363b;
      }
      .ColorScheme-ViewBackground {
        color:#fcfcfc;
      }
      .ColorScheme-ViewHover {
        color:#93cee9;
      }
      .ColorScheme-ViewFocus{
        color:#3daee9;
      }
      .ColorScheme-ButtonText {
        color:#31363b;
      }
      .ColorScheme-ButtonBackground {
        color:#eff0f1;
      }
      .ColorScheme-ButtonHover {
        color:#93cee9;
      }
      .ColorScheme-ButtonFocus{
        color:#3daee9;
      }</style>
  </defs>
  <metadata
     id="metadata7234">
    <rdf:RDF>
      <cc:Work
         rdf:about="">
        <dc:format>image/svg+xml</dc:format>
        <dc:type
           rdf:resource="http://purl.org/dc/dcmitype/StillImage" />
        <dc:title></dc:title>
      </cc:Work>
    </rdf:RDF>
  </metadata>
  <g
     id="layer1"
     transform="translate(-214.54 -404.51)">
    <path
       id="path4191-3-5"
       fill="#ffffff"
       style="color:#31363b"
       d="m237.54 431.51v2 8 2h3 15 1v-2-2h0.5c0.277 0 0.5-0.223 0.5-0.5v-3c0-0.277-0.223-0.5-0.5-0.5h-0.5v-2-2h-1-15zm1 1h17v3.5 3 3.5h-17z"
       class="ColorScheme-Text" />
    <path
       id="path4199-4-2"
       fill-rule="evenodd"
       fill="#ffffff"
       d="m239.54 441.51v-8h15v8z"
       class="ColorScheme-Text" />
    <path
       id="path4635"
       fill="#ffffff"
       d="m153.54 438.51v12h25v-3c0.554 0 1-0.446 1-1v-4c0-0.554-0.446-1-1-1v-3zm1 1h23v3 4 3h-23z"
       class="ColorScheme-Text" />
    <rect
       id="rect4637"
       height="8"
       class="ColorScheme-Text"
       fill="#ffffff"
       width="21"
       y="440.51"
       x="155.54" />
    <g
       id="22-22-Battery">
      <rect
         id="rect4185"
         height="22"
         fill="none"
         width="22"
         y="404.51"
         x="214.54" />
      <path
         id="rect4168"
         fill="#ffffff"
         style="color:#31363b"
         d="m215.54 409.51v2 8 2h3 15 1v-2-2h0.5c0.277 0 0.5-0.223 0.5-0.5v-3c0-0.277-0.223-0.5-0.5-0.5h-0.5v-2-2h-1-15zm1 1h17v3.5 3 3.5h-17z"
         class="ColorScheme-Text" />
    </g>
    <g
       id="22-22-Fill100">
      <rect
         id="rect4193"
         height="22"
         fill="none"
         width="22"
         y="404.51"
         x="236.54" />
      <path
         id="path4191"
         fill="#ffffff"
         style="color:#31363b"
         d="m237.54 409.51v2 8 2h3 15 1v-2-2h0.5c0.277 0 0.5-0.223 0.5-0.5v-3c0-0.277-0.223-0.5-0.5-0.5h-0.5v-2-2h-1-16zm1 1h17v3.5 3 3.5h-17z"
         class="ColorScheme-Text" />
      <path
         id="path4199"
         fill-rule="evenodd"
         fill="#ffffff"
         d="m239.54 419.51v-8h15v8z"
         class="ColorScheme-Text" />
    </g>
    <g
       id="22-22-Fill90">
      <rect
         id="rect4197"
         height="22"
         fill="none"
         width="22"
         y="404.51"
         x="258.54" />
      <path
         id="path4195"
         fill="#ffffff"
         style="color:#31363b"
         d="m259.54 409.51v2 8 2h3 15 1v-2-2h0.5c0.277 0 0.5-0.223 0.5-0.5v-3c0-0.277-0.223-0.5-0.5-0.5h-0.5v-2-2h-1-16zm1 1h17v3.5 3 3.5h-17z"
         class="ColorScheme-Text" />
      <path
         id="path4201"
         fill-rule="evenodd"
         fill="#ffffff"
         d="m261.54 411.51v8h14l-2-8z"
         class="ColorScheme-Text" />
    </g>
    <g
       id="22-22-Fill80">
      <rect
         id="rect4203"
         height="22"
         fill="none"
         width="22"
         y="404.51"
         x="280.54" />
      <path
         id="path4205"
         fill="#ffffff"
         style="color:#31363b"
         d="m281.54 409.51v2 8 2h3 15 1v-2-2h0.5c0.277 0 0.5-0.223 0.5-0.5v-3c0-0.277-0.223-0.5-0.5-0.5h-0.5v-2-2h-1-15zm1 1h17v3.5 3 3.5h-17z"
         class="ColorScheme-Text" />
      <path
         id="path4207"
         fill-rule="evenodd"
         fill="#ffffff"
         d="m283.54 411.51v8h12v-8z"
         class="ColorScheme-Text" />
    </g>
    <g
       id="22-22-Fill70">
      <rect
         id="rect4209"
         height="22"
         fill="none"
         width="22"
         y="404.51"
         x="302.54" />
      <path
         id="path4211"
         fill="#ffffff"
         style="color:#31363b"
         d="m303.54 409.51v2 8 2h3 15 1v-2-2h0.5c0.277 0 0.5-0.223 0.5-0.5v-3c0-0.277-0.223-0.5-0.5-0.5h-0.5v-2-2h-1-15zm1 1h17v3.5 3 3.5h-17z"
         class="ColorScheme-Text" />
      <path
         id="path4213"
         fill-rule="evenodd"
         fill="#ffffff"
         d="m305.54 411.51v8h11l-2-8z"
         class="ColorScheme-Text" />
    </g>
    <g
       id="22-22-Fill60">
      <rect
         id="rect4215"
         height="22"
         fill="none"
         width="22"
         y="404.51"
         x="324.54" />
      <path
         id="path4217"
         fill="#ffffff"
         style="color:#31363b"
         d="m325.54 409.51v2 8 2h3 15 1v-2-2h0.5c0.277 0 0.5-0.223 0.5-0.5v-3c0-0.277-0.223-0.5-0.5-0.5h-0.5v-2-2h-1-15zm1 1h17v3.5 3 3.5h-17z"
         class="ColorScheme-Text" />
      <path
         id="path4219"
         fill-rule="evenodd"
         fill="#ffffff"
         d="m327.54 411.51v8h9v-8z"
         class="ColorScheme-Text" />
    </g>
    <g
       id="22-22-Fill50">
      <rect
         id="rect4221"
         height="22"
         fill="none"
         width="22"
         y="404.51"
         x="346.54" />
      <path
         id="path4223"
         fill="#ffffff"
         style="color:#31363b"
         d="m347.54 409.51v2 8 2h3 15 1v-2-2h0.5c0.277 0 0.5-0.223 0.5-0.5v-3c0-0.277-0.223-0.5-0.5-0.5h-0.5v-2-2h-1-15zm1 1h17v3.5 3 3.5h-17z"
         class="ColorScheme-Text" />
      <path
         id="path4225"
         fill-rule="evenodd"
         fill="#ffffff"
         d="m349.54 411.51v8h8l-2-8z"
         class="ColorScheme-Text" />
    </g>
    <g
       id="22-22-Fill40">
      <rect
         id="rect4227"
         height="22"
         fill="none"
         width="22"
         y="404.51"
         x="368.54" />
      <path
         id="path4229"
         fill="#ffffff"
         style="color:#31363b"
         d="m369.54 409.51v2 8 2h3 15 1v-2-2h0.5c0.277 0 0.5-0.223 0.5-0.5v-3c0-0.277-0.223-0.5-0.5-0.5h-0.5v-2-2h-1-15zm1 1h17v3.5 3 3.5h-17z"
         class="ColorScheme-Text" />
      <path
         id="path4231"
         fill-rule="evenodd"
         fill="#ffffff"
         d="m371.54 411.51v8h6v-8z"
         class="ColorScheme-Text" />
    </g>
    <g
       id="22-22-Fill30">
      <rect
         id="rect4233"
         height="22"
         fill="none"
         width="22"
         y="404.51"
         x="390.54" />
      <path
         id="path4235"
         fill="#ffffff"
         style="color:#31363b"
         d="m391.54 409.51v2 8 2h3 15 1v-2-2h0.5c0.277 0 0.5-0.223 0.5-0.5v-3c0-0.277-0.223-0.5-0.5-0.5h-0.5v-2-2h-1-15zm1 1h17v3.5 3 3.5h-17z"
         class="ColorScheme-Text" />
      <path
         id="path4237"
         fill-rule="evenodd"
         fill="#ffffff"
         d="m393.54 411.51v8h5l-2-8z"
         class="ColorScheme-Text" />
    </g>
    <g
       id="22-22-Fill20">
      <rect
         id="rect4239"
         height="22"
         fill="none"
         width="22"
         y="404.51"
         x="412.54" />
      <path
         id="path4241"
         fill="#ffffff"
         d="m413.54 409.51v2 8 2h3 15 1v-2-2h0.5c0.277 0 0.5-0.223 0.5-0.5v-3c0-0.277-0.223-0.5-0.5-0.5h-0.5v-2-2h-1-15zm1 1h17v3.5 3 3.5h-17z"
         class="ColorScheme-Text" />
      <path
         id="path4243"
         fill="#ffffff"
         d="m415.54 411.51v8h3v-8z"
         class="ColorScheme-Text" />
    </g>
    <g
       id="22-22-Fill10"
       transform="translate(22)">
      <rect
         id="rect4336"
         height="22"
         fill="none"
         width="22"
         y="404.51"
         x="412.54" />
      <path
         id="path4338"
         d="m413.54 409.51v2 8 2h3 15 1v-2-2h0.5c0.277 0 0.5-0.223 0.5-0.5v-3c0-0.277-0.223-0.5-0.5-0.5h-0.5v-2-2h-1-15zm1 1h17v3.5 3 3.5h-17z"
         fill="#da4453" />
      <path
         id="path4340"
         fill-rule="evenodd"
         d="m415.54 411.51v8h3l-2-8z"
         fill="#da4453" />
    </g>
    <g
       id="22-22-Fill0"
       transform="translate(44)">
      <rect
         id="rect4344"
         height="22"
         fill="none"
         width="22"
         y="404.51"
         x="412.54" />
      <path
         id="path4346"
         d="m413.54 409.51v2 8 2h3 15 1v-2-2h0.5c0.277 0 0.5-0.223 0.5-0.5v-3c0-0.277-0.223-0.5-0.5-0.5h-0.5v-2-2h-1-15zm1 1h17v3.5 3 3.5h-17z"
         fill="#da4453" />
    </g>
    <g
       id="22-22-battery-ups">
      <rect
         id="rect4416"
         height="22"
         fill="none"
         width="22"
         y="426.51"
         x="214.54" />
      <path
         id="rect4552"
         fill="#ffffff"
         d="m5 25v16h12v-16h-12zm1 1h10v14h-10v-14zm5 1-2 5h2v3l2-5h-2v-3zm-4 10v2h1v-2h-1zm2 0v2h1v-2h-1zm2 0v2h1v-2h-1zm3 0a1 1 0 0 0 -1 1 1 1 0 0 0 1 1 1 1 0 0 0 1 -1 1 1 0 0 0 -1 -1z"
         class="ColorScheme-Text"
         transform="translate(214.54 404.51)" />
    </g>
    <path
       id="path4191-3"
       fill="#ffffff"
       style="color:#31363b"
       d="m259.54 431.51v2 8 2h3 15 1v-2-2h0.5c0.277 0 0.5-0.223 0.5-0.5v-3c0-0.277-0.223-0.5-0.5-0.5h-0.5v-2-2h-1-15zm1 1h17v3.5 3 3.5h-17z"
       class="ColorScheme-Text" />
    <path
       id="path4199-4"
       fill-rule="evenodd"
       fill="#ffffff"
       d="m261.54 441.51v-8h15v8z"
       class="ColorScheme-Text" />
    <g
       id="22-22-Unavailable">
      <rect
         id="rect4614"
         height="22"
         fill="none"
         width="22"
         y="426.51"
         x="258.54" />
      <g
         id="g4631">
        <rect
           id="rect4577-9-1"
           height="8"
           fill="#da4453"
           width="8"
           y="440.51"
           x="273.54"
           ry="0.8" />
        <path
           id="rect4622"
           fill="currentColor"
           d="m275.24 441.51-0.70703 0.70703 2.293 2.293-2.293 2.293 0.70703 0.70703 2.293-2.293 2.293 2.293 0.70703-0.70703-2.293-2.293 2.293-2.293-0.70703-0.70703-2.293 2.293-2.293-2.293z"
           class="ColorScheme-Background" />
      </g>
    </g>
    <g
       id="Battery">
      <rect
         id="rect4246"
         height="32"
         fill="none"
         width="32"
         y="396.51"
         x="182.54"
         ry="0" />
      <path
         id="rect4238"
         fill="#ffffff"
         d="m185.54 406.51v12h25v-3c0.554 0 1-0.446 1-1v-4c0-0.55401-0.446-1-1-1v-3zm1 1h23v3 4 3h-23z"
         class="ColorScheme-Text" />
    </g>
    <g
       id="Fill100">
      <rect
         id="rect4248"
         height="32"
         fill="none"
         width="32"
         y="396.51"
         x="150.54"
         ry="0" />
      <path
         id="path4250"
         fill="#ffffff"
         d="m153.54 406.51v12h25v-3c0.554 0 1-0.446 1-1v-4c0-0.554-0.446-1-1-1v-3zm1 1h23v3 4 3h-23z"
         class="ColorScheme-Text" />
      <rect
         id="rect4254"
         height="8"
         class="ColorScheme-Text"
         fill="#ffffff"
         width="21"
         y="408.51"
         x="155.54" />
    </g>
    <g
       id="Fill90">
      <rect
         id="rect4256"
         height="32"
         fill="none"
         width="32"
         y="396.51"
         x="118.54"
         ry="0" />
      <path
         id="path4260"
         fill="#ffffff"
         d="m121.54 406.51v12h25v-3c0.554 0 1-0.446 1-1v-4c0-0.554-0.446-1-1-1v-3zm1 1h23v3 4 3h-23z"
         class="ColorScheme-Text" />
      <path
         id="rect4262"
         fill="#ffffff"
         d="m123.54 408.51h19l2 8h-21z"
         class="ColorScheme-Text" />
    </g>
    <g
       id="Fill80">
      <rect
         id="rect4265"
         height="32"
         fill="none"
         width="32"
         y="396.51"
         x="86.536"
         ry="0" />
      <path
         id="path4269"
         fill="#ffffff"
         d="m89.536 406.51v12h25v-3c0.554 0 1-0.446 1-1v-4c0-0.554-0.446-1-1-1v-3zm1 1h23v3 4 3h-23z"
         class="ColorScheme-Text" />
      <path
         id="path4271"
         fill="#ffffff"
         d="m91.536 408.51h17l2 8h-19z"
         class="ColorScheme-Text" />
    </g>
    <g
       id="Fill70">
      <rect
         id="rect4273"
         height="32"
         fill="none"
         width="32"
         y="396.51"
         x="56.536"
         ry="0" />
      <path
         id="path4277"
         fill="#ffffff"
         d="m59.536 406.51v12h25v-3c0.554 0 1-0.446 1-1v-4c0-0.554-0.446-1-1-1v-3zm1 1h23v3 4 3h-23z"
         class="ColorScheme-Text" />
      <path
         id="path4279"
         fill="#ffffff"
         d="m61.536 408.51h15l2 8h-17z"
         class="ColorScheme-Text" />
    </g>
    <g
       id="Fill60">
      <rect
         id="rect4281"
         height="32"
         fill="none"
         width="32"
         y="396.51"
         x="24.536"
         ry="0" />
      <path
         id="path4285"
         fill="#ffffff"
         d="m27.536 406.51v12h25v-3c0.554 0 1-0.446 1-1v-4c0-0.554-0.446-1-1-1v-3zm1 1h23v3 4 3h-23z"
         class="ColorScheme-Text" />
      <path
         id="path4287"
         fill="#ffffff"
         d="m29.536 408.51h13l2 8h-15z"
         class="ColorScheme-Text" />
    </g>
    <g
       id="Fill50">
      <rect
         id="rect4289"
         height="32"
         fill="none"
         width="32"
         y="396.51"
         x="-7.4643"
         ry="0" />
      <path
         id="path4293"
         fill="#ffffff"
         d="m-4.4643 406.51v12h25v-3c0.554 0 1-0.446 1-1v-4c0-0.554-0.446-1-1-1v-3zm1 1h23v3 4 3h-23z"
         class="ColorScheme-Text" />
      <path
         id="path4295"
         fill="#ffffff"
         d="m-2.4643 408.51h11l2 8h-13z"
         class="ColorScheme-Text" />
    </g>
    <g
       id="Fill40">
      <rect
         id="rect4297"
         height="32"
         fill="none"
         width="32"
         y="396.51"
         x="-39.464"
         ry="0" />
      <path
         id="path4301"
         fill="#ffffff"
         d="m-36.464 406.51v12h25v-3c0.554 0 1-0.446 1-1v-4c0-0.554-0.446-1-1-1v-3zm1 1h23v3 4 3h-23z"
         class="ColorScheme-Text" />
      <path
         id="path4303"
         fill="#ffffff"
         d="m-34.464 408.51h9l2 8h-11z"
         class="ColorScheme-Text" />
    </g>
    <g
       id="Fill30">
      <rect
         id="rect4321"
         height="32"
         fill="none"
         width="32"
         y="396.51"
         x="-71.464"
         ry="0" />
      <path
         id="path4325"
         fill="#ffffff"
         d="m-68.464 406.51v12h25v-3c0.554 0 1-0.446 1-1v-4c0-0.554-0.446-1-1-1v-3zm1 1h23v3 4 3h-23z"
         class="ColorScheme-Text" />
      <path
         id="path4327"
         fill="#ffffff"
         d="m-66.464 408.51h5l2 8h-7z"
         class="ColorScheme-Text" />
    </g>
    <g
       id="Fill20">
      <rect
         id="rect4329"
         height="32"
         fill="none"
         width="32"
         y="396.51"
         x="-103.46"
         ry="0" />
      <path
         id="path4333"
         fill="#ffffff"
         d="m-100.46 406.51v12h25v-3c0.554 0 1-0.446 1-1v-4c0-0.554-0.446-1-1-1v-3zm1 1h23v3 4 3h-23z"
         class="ColorScheme-Text" />
      <path
         id="path4335"
         fill="#ffffff"
         d="m-98.464 408.51h3l2 8h-5z"
         class="ColorScheme-Text" />
    </g>
    <g
       id="Fill10">
      <rect
         id="rect4337"
         height="32"
         fill="none"
         width="32"
         y="396.51"
         x="-135.46"
         ry="0" />
      <path
         id="path4341"
         fill="#da4453"
         d="m-132.46 406.51v12h25v-3c0.554 0 1-0.446 1-1v-4c0-0.554-0.446-1-1-1v-3zm1 1h23v3 4 3h-23z" />
      <path
         id="path4343"
         fill="#da4453"
         d="m-130.46 408.51h1l2 8h-3z" />
    </g>
    <g
       id="Fill0">
      <rect
         id="rect4345"
         height="32"
         fill="none"
         width="32"
         y="396.51"
         x="-167.46"
         ry="0" />
      <path
         id="path4349"
         fill="#da4453"
         d="m-164.46 406.51v12h25v-3c0.554 0 1-0.446 1-1v-4c0-0.554-0.446-1-1-1v-3zm1 1h23v3 4 3h-23z" />
    </g>
    <g
       id="battery-ups">
      <rect
         id="rect4447"
         height="32"
         fill="none"
         width="32"
         y="428.51"
         x="182.54" />
      <path
         id="rect4411"
         fill="#ffffff"
         d="m190.54 432.51v24h16v-24h-16zm1 1h14v22h-14v-22zm7 2-3 7h3v4l3-7h-3v-4zm-6 15v3h1v-3h-1zm2 0v3h1v-3h-1zm2 0v3h1v-3h-1zm2 0v3h1v-3h-1zm4.5 0a1.5 1.5 0 0 0 -1.5 1.5 1.5 1.5 0 0 0 1.5 1.5 1.5 1.5 0 0 0 1.5 -1.5 1.5 1.5 0 0 0 -1.5 -1.5z"
         class="ColorScheme-Text" />
    </g>
    <g
       id="AcAdapter">
      <rect
         id="rect4470"
         height="32"
         fill="none"
         width="32"
         y="428.5"
         x="150.54" />
      <g
         id="g4600">
        <path
           id="path4472"
           d="m-48 37a3 3 0 0 0 -2.826 2h-1.174v2h1.176a3 3 0 0 0 2.824 2v-1h2v-1h-2v-0.1-1.9h2v-1h-2v-1z"
           fill="#4d5a5b"
           transform="translate(214.54 404.51)" />
      </g>
    </g>
    <path
       id="path4250-0"
       fill="#ffffff"
       d="m88.536 438.51v12h25v-3c0.554 0 1-0.446 1-1v-4c0-0.554-0.446-1-1-1v-3zm1 1h23v3 4 3h-23z"
       class="ColorScheme-Text" />
    <rect
       id="rect4254-4"
       height="8"
       class="ColorScheme-Text"
       fill="#ffffff"
       width="21"
       y="440.51"
       x="90.536" />
    <g
       id="Unavailable"
       transform="translate(-33)">
      <rect
         id="rect4480"
         height="32"
         fill="none"
         width="32"
         y="428.5"
         x="118.54" />
      <g
         id="g4580">
        <rect
           id="rect4577"
           height="10"
           fill="#da4453"
           width="10"
           y="446.51"
           x="141.54"
           ry="1" />
        <path
           id="rect4622-0"
           fill="currentColor"
           d="m144.24 448.5-0.70703 0.70703 2.293 2.293-2.293 2.293 0.70703 0.70703 2.293-2.293 2.293 2.293 0.70703-0.70703-2.293-2.293 2.293-2.293-0.70703-0.70703-2.293 2.293-2.293-2.293z"
           class="ColorScheme-Background" />
      </g>
    </g>
    <g
       id="22-22-AcAdapter">
      <rect
         id="rect4185-5"
         height="22"
         fill="none"
         width="22"
         y="426.51"
         x="236.54" />
      <path
         id="path4600"
         d="m34 30a3 3 0 0 0 -2.8262 2h-1.174v2h1.1758a3 3 0 0 0 2.824 2v-1h2v-0.09961-0.9h-2v-0.1-1.9h2v-1h-2v-1z"
         fill="#4d5a5b"
         transform="translate(214.54 404.51)" />
    </g>
  </g>
</svg>
