<?xml version="1.0" encoding="UTF-8"?>
<!-- Created with Inkscape (http://www.inkscape.org/) -->
<svg id="svg3869" xmlns:dc="http://purl.org/dc/elements/1.1/" viewBox="0 0 32 32" xmlns:cc="http://creativecommons.org/ns#" xmlns:rdf="http://www.w3.org/1999/02/22-rdf-syntax-ns#" height="32" xmlns="http://www.w3.org/2000/svg" version="1.1" width="32">
 <defs id="defs3871">
  <style id="current-color-scheme" type="text/css">.ColorScheme-Text {
        color:#31363b;
      }
      .ColorScheme-Background {
        color:#eff0f1;
      }
      .ColorScheme-Highlight {
        color:#3daee9;
      }
      .ColorScheme-ViewText {
        color:#31363b;
      }
      .ColorScheme-ViewBackground {
        color:#fcfcfc;
      }
      .ColorScheme-ViewHover {
        color:#93cee9;
      }
      .ColorScheme-ViewFocus{
        color:#3daee9;
      }
      .ColorScheme-ButtonText {
        color:#31363b;
      }
      .ColorScheme-ButtonBackground {
        color:#eff0f1;
      }
      .ColorScheme-ButtonHover {
        color:#93cee9;
      }
      .ColorScheme-ButtonFocus{
        color:#3daee9;
      }</style>
 </defs>
 <metadata id="metadata3874">
  <rdf:RDF>
   <cc:Work rdf:about="">
    <dc:format>image/svg+xml</dc:format>
    <dc:type rdf:resource="http://purl.org/dc/dcmitype/StillImage"/>
    <dc:title/>
   </cc:Work>
  </rdf:RDF>
 </metadata>
 <g id="layer1" transform="translate(-321 -529.36)">
  <g id="device-notifier">
   <path id="rect4196" d="m9 2v14h-1-1v14h1 16 1v-14h-1-1v-14h-14zm1 3h2v8h-2v-8zm10 0h2v8h-2v-8zm-7 3h2v5h-2v-5zm4 0h2v5h-2v-5zm-9 9h16v12h-16v-12zm8 1-2 2h4l-2-2zm-6 7v1h12v-1h-12zm1 2v1h10v-1h-10z" fill="#fff" class="ColorScheme-Text" transform="translate(321 529.36)"/>
   <rect id="rect4151" width="32" x="321" height="32" opacity=".2" fill="none" y="529.36"/>
  </g>
  <g id="22-22-device-notifier">
   <rect id="rect4157" width="22" x="358" height="22" opacity=".2" fill="none" y="534.36"/>
   <path id="rect4159" d="m365 537.36v8h-1v1 7h1 9v-1-6-1h-1v-8h-8zm1 2h1v4h-1v-4zm5 0h1v4h-1v-4zm-3 2h2v2h-2v-2zm-3 5h8v6h-8v-6zm4 1-1 1h2l-1-1zm-3 3v1h6v-1h-6z" class="ColorScheme-Text" fill="#fff"/>
  </g>
  <g id="16-16-device-notifier">
   <rect id="rect4182" x="387" width="16" height="16" fill="none" y="537.36" opacity=".2"/>
   <path id="rect4188" d="m71 10v6h-1v1 4 1h1 6 1v-1-4-1h-1v-6h-6zm1 2h1v3h-1v-3zm3 0h1v3h-1v-3zm-4 5h6v4h-6v-4zm1 2v1h4v-1h-4z" fill="#ffffff" class="ColorScheme-Text" transform="translate(321 529.36)"/>
  </g>
 </g>
</svg>
