<?xml version="1.0" encoding="UTF-8"?>
<!-- Created with Inkscape (http://www.inkscape.org/) -->
<svg id="svg3869" xmlns:cc="http://creativecommons.org/ns#" width="22" xmlns:rdf="http://www.w3.org/1999/02/22-rdf-syntax-ns#" xmlns:dc="http://purl.org/dc/elements/1.1/" viewBox="0 0 22 22" height="22" version="1.1" xmlns="http://www.w3.org/2000/svg">
 <defs id="defs3871">
  <style id="current-color-scheme" type="text/css">.ColorScheme-Text {
        color:#31363b;
      }
      .ColorScheme-Background {
        color:#eff0f1;
      }
      .ColorScheme-Highlight {
        color:#3daee9;
      }
      .ColorScheme-ViewText {
        color:#31363b;
      }
      .ColorScheme-ViewBackground {
        color:#fcfcfc;
      }
      .ColorScheme-ViewHover {
        color:#93cee9;
      }
      .ColorScheme-ViewFocus{
        color:#3daee9;
      }
      .ColorScheme-ButtonText {
        color:#31363b;
      }
      .ColorScheme-ButtonBackground {
        color:#eff0f1;
      }
      .ColorScheme-ButtonHover {
        color:#93cee9;
      }
      .ColorScheme-ButtonFocus{
        color:#3daee9;
      }</style>
 </defs>
 <metadata id="metadata3874">
  <rdf:RDF>
   <cc:Work rdf:about="">
    <dc:format>image/svg+xml</dc:format>
    <dc:type rdf:resource="http://purl.org/dc/dcmitype/StillImage"/>
    <dc:title/>
   </cc:Work>
  </rdf:RDF>
 </metadata>
 <g id="layer1" transform="translate(-326 -534.36)">
  <g id="drive-harddisk">
   <rect id="rect4319" class="ColorScheme-Text" height="22" fill-opacity="0" x="326" width="22" y="534.36"/>
   <path id="rect4289" class="ColorScheme-Text" d="m4 3v16h2 10 2v-16h-14zm1 1h12v12h-12v-12zm2.5 1a0.5 0.5 0 0 0 -0.5 0.5 0.5 0.5 0 0 0 0.5 0.5 0.5 0.5 0 0 0 0.5 -0.5 0.5 0.5 0 0 0 -0.5 -0.5zm1.5 0-1 1 1 1-1 1 1 1 1-1 1-1-1-1-1-1zm-2.5 2a0.5 0.5 0 0 0 -0.5 0.5 0.5 0.5 0 0 0 0.5 0.5 0.5 0.5 0 0 0 0.5 -0.5 0.5 0.5 0 0 0 -0.5 -0.5zm1 2a0.5 0.5 0 0 0 -0.5 0.5 0.5 0.5 0 0 0 0.5 0.5 0.5 0.5 0 0 0 0.5 -0.5 0.5 0.5 0 0 0 -0.5 -0.5zm3.5 3v1h5v-1h-5zm0 2v1h5v-1h-5zm-5 3h10v1h-10v-1z" transform="translate(326 534.36)" fill="#ffffff"/>
  </g>
  <g id="16-16-drive-harddisk">
   <g id="layer1-5" transform="translate(310,-499)">
    <path id="rect4142" class="ColorScheme-Text" d="m2 2v12h1 10 1v-12h-12zm1 1h10v7 1h-5v1h-2v-1h-3v-1-7zm1 1v6h8v-6h-8zm1 1h1v2h4v-2h1v4h-6v-4zm-2 7h2v1h-2v-1zm6 0h3v1h-3v-1z" transform="translate(0 1036.4)" fill="#ffffff"/>
   </g>
   <rect id="rect4340" class="ColorScheme-Text" height="16" fill-opacity="0" x="310" width="16" y="537.36"/>
  </g>
 </g>
</svg>
