<?xml version="1.0" encoding="UTF-8"?>
<!-- Created with Inkscape (http://www.inkscape.org/) -->
<svg id="svg3869" xmlns="http://www.w3.org/2000/svg" version="1.1" xmlns:dc="http://purl.org/dc/elements/1.1/" viewBox="0 0 22 22" width="22" height="22" xmlns:cc="http://creativecommons.org/ns#" xmlns:rdf="http://www.w3.org/1999/02/22-rdf-syntax-ns#">
 <defs id="defs3871">
  <style id="current-color-scheme" type="text/css">.ColorScheme-Text {
        color:#31363b;
      }
      .ColorScheme-Background {
        color:#eff0f1;
      }
      .ColorScheme-Highlight {
        color:#3daee9;
      }
      .ColorScheme-ViewText {
        color:#31363b;
      }
      .ColorScheme-ViewBackground {
        color:#fcfcfc;
      }
      .ColorScheme-ViewHover {
        color:#93cee9;
      }
      .ColorScheme-ViewFocus{
        color:#3daee9;
      }
      .ColorScheme-ButtonText {
        color:#31363b;
      }
      .ColorScheme-ButtonBackground {
        color:#eff0f1;
      }
      .ColorScheme-ButtonHover {
        color:#93cee9;
      }
      .ColorScheme-ButtonFocus{
        color:#3daee9;
      }</style>
 </defs>
 <metadata id="metadata3874">
  <rdf:RDF>
   <cc:Work rdf:about="">
    <dc:format>image/svg+xml</dc:format>
    <dc:type rdf:resource="http://purl.org/dc/dcmitype/StillImage"/>
    <dc:title/>
   </cc:Work>
  </rdf:RDF>
 </metadata>
 <g id="layer1" transform="translate(-326 -534.36)">
  <g id="input-mouse-battery">
   <rect id="rect4191" ry="0" fill="none" x="326" height="22" y="534.36" width="22"/>
   <path id="rect4154" fill="#ffffff" class="ColorScheme-Text" d="m13.5 3c-3.047 0-5.5 2.676-5.5 6v4c0 3.324 2.453 6 5.5 6s5.5-2.676 5.5-6v-4c0-3.324-2.453-6-5.5-6zm0 1c2.493 0 4.5 2.007 4.5 4.5v5c0 2.493-2.007 4.5-4.5 4.5s-4.5-2.007-4.5-4.5v-5c0-2.493 2.007-4.5 4.5-4.5zm0 2c-0.277 0-0.5 0.223-0.5 0.5v2c0 0.277 0.223 0.5 0.5 0.5s0.5-0.223 0.5-0.5v-2c0-0.277-0.223-0.5-0.5-0.5z" transform="translate(326 534.36)"/>
   <path id="path4176" fill="#ffffff" d="m331 537.36-2 5h2v3l2-5h-2z" class="ColorScheme-Text"/>
  </g>
  <g id="input-keyboard-battery">
   <rect id="rect4378" ry="0" fill="none" x="370" height="32" y="556.36" width="32"/>
   <path id="rect4223" fill="#ffffff" class="ColorScheme-Text" d="m50 26v20l10 4 10-4v-11h-1v8h-18v-16h14v-1h-15zm18 0-2 5h2v3l2-5h-2v-3zm-8.834 4-4.166 10h1.5566l0.99414-2.5645h4.9199l0.994 2.564h1.535l-4.16-10h-1.674zm0.834 1.332l2.0098 4.9766h-4.0117l2.002-4.977zm-9 12.668h18v1h-18v-1z" transform="translate(326 534.36)"/>
  </g>
  <g id="input-keyboard-brightness">
   <rect id="rect4266" ry="0" fill="none" x="402" height="32" y="556.36" width="32"/>
   <path id="path4270" fill="#ffffff" d="m408 560.36v20l10 4 10-4v-10h-1v7h-18v-16h12v-1zm9.166 4-4.166 10h1.5566l0.99414-2.5644h4.9199l0.99414 2.5644h1.5352l-4.1602-10zm0.83398 1.332 2.0098 4.9766h-4.0117zm-9 12.668h18v1h-18z" class="ColorScheme-Text"/>
   <path id="path4274" fill="#ffffff" class="ColorScheme-Text" d="m100 25c-0.277 0-0.5 0.223-0.5 0.5v1c0 0.277 0.223 0.5 0.5 0.5s0.5-0.223 0.5-0.5v-1c0-0.277-0.223-0.5-0.5-0.5zm-3.1816 1.3184c-0.12781 0-0.25558 0.04855-0.35352 0.14648-0.19587 0.19587-0.19587 0.51116 0 0.70703l0.70703 0.70703c0.19587 0.19587 0.51116 0.19587 0.70703 0s0.19587-0.51116 0-0.70703l-0.70703-0.70703c-0.09793-0.09793-0.22571-0.14648-0.35352-0.14648zm6.3633 0c-0.12781 0-0.25558 0.04855-0.35352 0.14648l-0.70703 0.70703c-0.19586 0.19587-0.19586 0.51116 0 0.70703 0.19587 0.19587 0.51117 0.19587 0.70703 0l0.70704-0.70703c0.19586-0.19587 0.19586-0.51116 0-0.70703-0.0979-0.09793-0.22571-0.14648-0.35352-0.14648zm-3.18 1.682c-1.1046 0-2 0.89543-2 2s0.89543 2 2 2 2-0.89543 2-2-0.89543-2-2-2zm0 1v2c-0.55228 0-1-0.44772-1-1s0.44772-1 1-1zm-4.5 0.5c-0.277 0-0.5 0.223-0.5 0.5s0.223 0.5 0.5 0.5h1c0.277 0 0.5-0.223 0.5-0.5s-0.223-0.5-0.5-0.5h-1zm8 0c-0.277 0-0.5 0.223-0.5 0.5s0.223 0.5 0.5 0.5h1c0.277 0 0.5-0.223 0.5-0.5s-0.223-0.5-0.5-0.5h-1zm-5.9746 2.4746c-0.12781 0-0.25558 0.04855-0.35352 0.14648l-0.70703 0.70703c-0.19587 0.19587-0.19587 0.51116 0 0.70703s0.51116 0.19587 0.70703 0l0.70703-0.70703c0.19587-0.19587 0.19587-0.51116 0-0.70703-0.09793-0.09793-0.22571-0.14648-0.35352-0.14648zm4.9492 0c-0.12781 0-0.25558 0.04855-0.35352 0.14648-0.19586 0.19587-0.19586 0.51116 0 0.70703l0.70703 0.70703c0.19587 0.19587 0.51117 0.19587 0.70704 0 0.19586-0.19587 0.19586-0.51116 0-0.70703l-0.70704-0.70703c-0.0979-0.09793-0.2257-0.14648-0.35351-0.14648zm-2.47 1.025c-0.277 0-0.5 0.223-0.5 0.5v1c0 0.277 0.223 0.5 0.5 0.5s0.5-0.223 0.5-0.5v-1c0-0.277-0.223-0.5-0.5-0.5z" transform="translate(326 534.36)"/>
  </g>
  <g id="22-22-input-keyboard-battery">
   <rect id="rect4393" ry="0" fill="none" x="348" height="22" y="534.36" width="22"/>
   <path id="rect4317" fill="#ffffff" class="ColorScheme-Text" d="m26 3v14l7 2 7-2v-5h-1v2h-12v-10h8v-1h-9zm12 0-2 5h2v3l2-5h-2v-3zm-5.5 3-2.5 6h0.93359l0.59766-1.5391h2.9512l0.595 1.539h0.922l-2.496-6h-1.004zm0.5 0.79883 1.207 2.9863h-2.4082l1.201-2.9863zm-6 8.2012h12v1h-12v-1z" transform="translate(326 534.36)"/>
  </g>
  <g id="22-22-input-keyboard-brightness">
   <rect id="rect4313" ry="0" fill="none" x="370" height="22" y="534.36" width="22"/>
   <path id="path4344" fill="#ffffff" class="ColorScheme-Text" d="m48 3v14l7 2 7-2v-5h-1v2h-12v-10h8v-1h-9zm12 0c-1.1046 0-2 0.89543-2 2s0.89543 2 2 2 2-0.89543 2-2-0.89543-2-2-2zm0 1v2c-0.552 0-1-0.4477-1-1s0.448-1 1-1zm-5.5 2-2.5 6h0.93359l0.59766-1.5391h2.9512l0.595 1.539h0.922l-2.496-6h-1.004zm0.5 0.79883 1.207 2.9863h-2.4082l1.201-2.9863zm-6 8.2012h12v1h-12v-1z" transform="translate(326 534.36)"/>
  </g>
 </g>
</svg>
