<?xml version="1.0" encoding="UTF-8"?>
<svg id="svg3066" xmlns:cc="http://creativecommons.org/ns#" xmlns:dc="http://purl.org/dc/elements/1.1/" xmlns="http://www.w3.org/2000/svg" xmlns:rdf="http://www.w3.org/1999/02/22-rdf-syntax-ns#" width="24" version="1.1" height="24">
 <metadata id="metadata3071">
  <rdf:RDF>
   <cc:Work rdf:about="">
    <dc:format>image/svg+xml</dc:format>
    <dc:type rdf:resource="http://purl.org/dc/dcmitype/StillImage"/>
    <dc:title/>
   </cc:Work>
  </rdf:RDF>
 </metadata>
 <g id="kaffeine" transform="translate(-49.75 -995.23)">
  <g id="kopete" transform="matrix(.67929 0 0 .67929 49.573 1007.4)">
   <rect id="rect4184" y="-17.892" fill-opacity="0" height="35.331" opacity="0.668" x=".26024" width="35.331"/>
  </g>
  <path id="rect3845" fill-rule="evenodd" fill="#ffffff" d="m52.731 999.15c-0.50221-0.002-0.90532 0.44597-0.90651 1.0001l-0.02832 13.938c-0.0012 0.554 0.40431 0.998 0.90652 1l18.159 0.062c0.50221 0 0.90532-0.446 0.90652-1l0.02832-13.938c0.0012-0.5541-0.40431-0.99813-0.90652-1.0001l-18.159-0.0625zm0.73654 1.0001h16.686c0.22233 0 0.38637 0.09 0.50992 0.25 0.14821 0.16 0.22661 0.3491 0.22663 0.5625v1.1875h-0.93484-1.813v2h2.7479v2h-2.7479v2h2.7479v2h-2.7479v2h2.7479v1.1875c-0.00002 0.2133-0.07842 0.4024-0.22663 0.5625-0.12355 0.16-0.28758 0.25-0.50992 0.25h-16.686c-0.19765 0-0.36168-0.09-0.50992-0.25-0.14823-0.1601-0.22663-0.3492-0.22663-0.5625v-1.1875h2.7195v-2h-2.7195v-2h2.7195v-2h-2.7195v-2h2.7195v-2h-2.7195v-1.1875c-0.000001-0.2134 0.07839-0.4025 0.22663-0.5625 0.14823-0.1601 0.31227-0.25 0.50992-0.25zm5.6091 4v6l5.4391-3-5.4391-3z"/>
 </g>
</svg>
