<?xml version="1.0" encoding="UTF-8"?>
<!-- Created with Inkscape (http://www.inkscape.org/) -->
<svg id="svg3869" width="32" height="32" xmlns:cc="http://creativecommons.org/ns#" xmlns:rdf="http://www.w3.org/1999/02/22-rdf-syntax-ns#" viewBox="0 0 32 32" xmlns="http://www.w3.org/2000/svg" xmlns:dc="http://purl.org/dc/elements/1.1/" version="1.1">
 <defs id="defs3871">
  <style id="current-color-scheme" type="text/css">.ColorScheme-Text {
        color:#31363b;
      }
      .ColorScheme-Background {
        color:#eff0f1;
      }
      .ColorScheme-Highlight {
        color:#3daee9;
      }
      .ColorScheme-ViewText {
        color:#31363b;
      }
      .ColorScheme-ViewBackground {
        color:#fcfcfc;
      }
      .ColorScheme-ViewHover {
        color:#93cee9;
      }
      .ColorScheme-ViewFocus{
        color:#3daee9;
      }
      .ColorScheme-ButtonText {
        color:#31363b;
      }
      .ColorScheme-ButtonBackground {
        color:#eff0f1;
      }
      .ColorScheme-ButtonHover {
        color:#93cee9;
      }
      .ColorScheme-ButtonFocus{
        color:#3daee9;
      }</style>
 </defs>
 <metadata id="metadata3874">
  <rdf:RDF>
   <cc:Work rdf:about="">
    <dc:format>image/svg+xml</dc:format>
    <dc:type rdf:resource="http://purl.org/dc/dcmitype/StillImage"/>
    <dc:title/>
   </cc:Work>
  </rdf:RDF>
 </metadata>
 <g id="layer1" transform="translate(-321 -529.36)">
  <g id="kdeconnect">
   <rect id="rect4436" height="32" x="321" y="529.36" width="32" fill="none"/>
   <path id="path4241" class="ColorScheme-Text" fill="#ffffff" transform="translate(321 529.36)" d="m8 2v24 1 3h16v-28h-16zm5 1h6v1h-6v-1zm-4 2h14v23h-14v-23zm6.5 7l-0.277 1.107c-0.252 0.068-0.495 0.167-0.721 0.297l-0.977-0.586-0.707 0.707 0.586 0.977c-0.131 0.227-0.232 0.47-0.3 0.723l-1.104 0.275v1l1.107 0.277c0.068 0.252 0.167 0.495 0.297 0.721l-0.586 0.977 0.707 0.707 0.977-0.586c0.227 0.131 0.47 0.232 0.723 0.3l0.275 1.104h1l0.277-1.107c0.252-0.068 0.495-0.167 0.721-0.297l0.977 0.586 0.707-0.707-0.586-0.977c0.131-0.227 0.232-0.47 0.3-0.723l1.104-0.275v-1l-1.107-0.277c-0.068-0.252-0.167-0.495-0.297-0.721l0.586-0.977-0.707-0.707-0.977 0.586c-0.227-0.131-0.47-0.232-0.723-0.3l-0.275-1.104h-1zm0.5 2c0.066 0 0.133 0.003 0.199 0.01 0.066 0.006 0.132 0.016 0.197 0.029 0.066 0.014 0.132 0.031 0.196 0.051 0.063 0.02 0.126 0.042 0.187 0.068 0.062 0.026 0.122 0.055 0.18 0.086 0.058 0.032 0.115 0.068 0.17 0.106 0.055 0.037 0.109 0.078 0.16 0.121s0.1 0.088 0.147 0.136c0.046 0.048 0.089 0.097 0.13 0.149 0.042 0.053 0.081 0.107 0.118 0.164 0.036 0.056 0.069 0.114 0.099 0.174 0.03 0.059 0.057 0.12 0.08 0.181 0.025 0.062 0.046 0.126 0.065 0.19 0.017 0.064 0.032 0.129 0.043 0.195s0.019 0.133 0.023 0.199c0.004 0.047 0.006 0.094 0.006 0.141 0 0.066-0.003 0.133-0.01 0.199-0.006 0.066-0.016 0.132-0.029 0.197-0.014 0.066-0.031 0.132-0.051 0.196-0.02 0.063-0.042 0.126-0.068 0.187-0.026 0.062-0.055 0.122-0.086 0.18-0.032 0.058-0.068 0.115-0.106 0.17-0.037 0.055-0.078 0.109-0.121 0.16s-0.088 0.1-0.136 0.147c-0.048 0.046-0.097 0.089-0.149 0.13-0.053 0.042-0.107 0.081-0.164 0.118-0.056 0.036-0.114 0.069-0.174 0.099-0.059 0.03-0.12 0.057-0.181 0.08-0.062 0.025-0.126 0.046-0.19 0.065-0.064 0.017-0.129 0.032-0.195 0.043s-0.133 0.019-0.199 0.023c-0.028 0.004-0.056 0.007-0.084 0.01h-0.137c-0.04-0.002-0.08-0.005-0.119-0.01-0.066-0.006-0.132-0.016-0.197-0.029-0.066-0.014-0.132-0.031-0.196-0.051-0.063-0.02-0.126-0.042-0.187-0.068-0.062-0.026-0.122-0.055-0.18-0.086-0.058-0.033-0.115-0.068-0.17-0.106-0.055-0.037-0.109-0.078-0.16-0.121-0.03-0.026-0.059-0.054-0.088-0.082l-0.088-0.088c-0.035-0.037-0.069-0.075-0.101-0.115-0.042-0.053-0.081-0.107-0.118-0.164-0.036-0.056-0.069-0.114-0.099-0.174-0.03-0.059-0.057-0.12-0.08-0.181-0.025-0.062-0.046-0.126-0.065-0.19-0.017-0.064-0.032-0.129-0.043-0.195s-0.019-0.133-0.023-0.199c-0.004-0.047-0.006-0.094-0.006-0.141 0-0.067 0.003-0.133 0.01-0.199 0.006-0.067 0.016-0.132 0.029-0.198 0.014-0.065 0.031-0.131 0.051-0.195 0.02-0.063 0.042-0.126 0.068-0.187 0.026-0.062 0.055-0.122 0.086-0.18 0.032-0.058 0.068-0.115 0.106-0.17 0.037-0.055 0.078-0.109 0.121-0.16s0.088-0.1 0.136-0.147c0.048-0.046 0.097-0.089 0.149-0.13 0.053-0.042 0.107-0.081 0.164-0.118 0.056-0.036 0.114-0.069 0.174-0.099 0.059-0.03 0.12-0.057 0.181-0.08 0.062-0.025 0.126-0.047 0.19-0.065 0.064-0.017 0.129-0.032 0.195-0.043s0.133-0.019 0.199-0.023c0.047-0.005 0.094-0.008 0.141-0.01z"/>
  </g>
  <g id="16-16-kdeconnect">
   <rect id="rect4442" height="16" x="303" y="537.36" width="16" fill="none"/>
   <path id="rect4148" class="ColorScheme-Text" fill="#ffffff" transform="translate(321 529.36)" d="m-14 10v12h2v-1-1h-1v-7h6v1h1v-4h-8zm3 1h2v1h-2v-1zm2.5 3l-0.2773 1.107a3 3 0 0 0 -0.7207 0.297l-0.977-0.586-0.707 0.707 0.586 0.977a3 3 0 0 0 -0.3 0.723l-1.104 0.275v1l1.107 0.277a3 3 0 0 0 0.297 0.721l-0.586 0.977 0.707 0.707 0.977-0.586a3 3 0 0 0 0.7226 0.3l0.2754 1.104h1l0.2773-1.107a3 3 0 0 0 0.7207 -0.297l0.9766 0.586 0.707-0.707-0.5859-0.977a3 3 0 0 0 0.3008 -0.723l1.1035-0.275v-1l-1.1074-0.277a3 3 0 0 0 -0.2969 -0.721l0.5859-0.977-0.707-0.707-0.9766 0.586a3 3 0 0 0 -0.7226 -0.3l-0.2754-1.104h-1zm0.5 2a2 2 0 0 1 0.1992 0.01 2 2 0 0 1 0.1973 0.029 2 2 0 0 1 0.1953 0.051 2 2 0 0 1 0.1875 0.068 2 2 0 0 1 0.1797 0.086 2 2 0 0 1 0.1699 0.106 2 2 0 0 1 0.1602 0.121 2 2 0 0 1 0.1464 0.136 2 2 0 0 1 0.1309 0.149 2 2 0 0 1 0.1172 0.164 2 2 0 0 1 0.0996 0.174 2 2 0 0 1 0.0801 0.181 2 2 0 0 1 0.0644 0.19 2 2 0 0 1 0.043 0.195 2 2 0 0 1 0.0234 0.199 2 2 0 0 1 0.0059 0.141 2 2 0 0 1 -0.0098 0.199 2 2 0 0 1 -0.0293 0.197 2 2 0 0 1 -0.0507 0.196 2 2 0 0 1 -0.0684 0.187 2 2 0 0 1 -0.0859 0.18 2 2 0 0 1 -0.1055 0.17 2 2 0 0 1 -0.1211 0.16 2 2 0 0 1 -0.1367 0.147 2 2 0 0 1 -0.1485 0.13 2 2 0 0 1 -0.164 0.118 2 2 0 0 1 -0.1739 0.099 2 2 0 0 1 -0.1816 0.08 2 2 0 0 1 -0.1894 0.065 2 2 0 0 1 -0.1954 0.043 2 2 0 0 1 -0.1992 0.023 2 2 0 0 1 -0.084 0.01h-0.1367a2 2 0 0 1 -0.1191 -0.01 2 2 0 0 1 -0.1973 -0.029 2 2 0 0 1 -0.1953 -0.051 2 2 0 0 1 -0.1875 -0.068 2 2 0 0 1 -0.1797 -0.086 2 2 0 0 1 -0.1699 -0.106 2 2 0 0 1 -0.1602 -0.121 2 2 0 0 1 -0.0879 -0.082l-0.0878-0.088a2 2 0 0 1 -0.1016 -0.115 2 2 0 0 1 -0.1172 -0.164 2 2 0 0 1 -0.0996 -0.174 2 2 0 0 1 -0.0801 -0.181 2 2 0 0 1 -0.0644 -0.19 2 2 0 0 1 -0.043 -0.195 2 2 0 0 1 -0.0234 -0.199 2 2 0 0 1 -0.0059 -0.141 2 2 0 0 1 0.0098 -0.199 2 2 0 0 1 0.0293 -0.198 2 2 0 0 1 0.0507 -0.195 2 2 0 0 1 0.0684 -0.187 2 2 0 0 1 0.0859 -0.18 2 2 0 0 1 0.1055 -0.17 2 2 0 0 1 0.1211 -0.16 2 2 0 0 1 0.1367 -0.147 2 2 0 0 1 0.1485 -0.13 2 2 0 0 1 0.164 -0.118 2 2 0 0 1 0.1739 -0.099 2 2 0 0 1 0.1816 -0.08 2 2 0 0 1 0.1894 -0.065 2 2 0 0 1 0.1954 -0.043 2 2 0 0 1 0.1992 -0.023 2 2 0 0 1 0.1406 -0.01z"/>
  </g>
  <g id="22-22-kdeconnect" transform="translate(-1)">
   <rect id="rect4444" width="22" height="22" y="534.36" x="356" fill="none"/>
   <path id="rect4403" class="ColorScheme-Text" fill="#ffffff" transform="translate(322 529.36)" d="m40 8v16h10v-16zm3 1h4v1h-4zm-2 2h8v5.5l-1.1074-0.27734c-0.0672-0.25212-0.167-0.4944-0.29688-0.7207l0.58594-0.97656-0.70703-0.70703-0.97656 0.58594c-0.227-0.131-0.47-0.232-0.723-0.3l-0.275-1.104h-1l-0.27734 1.1074c-0.25212 0.0672-0.4944 0.167-0.7207 0.29688l-0.97656-0.58594-0.70703 0.70703 0.58594 0.97656c-0.13139 0.22672-0.23251 0.46967-0.30078 0.72266l-1.103 0.275zm4 4c0.06653-0.00006 0.13302 0.0032 0.19922 0.0098 0.0662 0.0065 0.13204 0.01626 0.19726 0.0293 0.06592 0.01363 0.1311 0.03058 0.19531 0.05078 0.0636 0.01965 0.12618 0.04247 0.1875 0.06836 0.06129 0.02564 0.12126 0.05433 0.17969 0.08594 0.05836 0.0323 0.11508 0.0675 0.16992 0.10547 0.05538 0.03766 0.10883 0.07807 0.16016 0.12109 0.05108 0.0431 0.09997 0.08873 0.14648 0.13672 0.04604 0.04729 0.08971 0.09683 0.13086 0.14844 0.0418 0.05268 0.08091 0.10744 0.11719 0.16406 0.03609 0.05624 0.06933 0.11426 0.09961 0.17383 0.02968 0.05918 0.05641 0.11981 0.08008 0.18164 0.02463 0.06204 0.04614 0.12527 0.06445 0.18945 0.01757 0.06435 0.03191 0.12953 0.04297 0.19531 0.01114 0.06597 0.01896 0.13246 0.02344 0.19922 0.0036 0.04679 0.0056 0.0937 0.0059 0.14062 0.00006 0.06653-0.0032 0.13302-0.0098 0.19922-0.0065 0.0662-0.01626 0.13204-0.0293 0.19726-0.01363 0.06592-0.03058 0.1311-0.05078 0.19531-0.01965 0.0636-0.04247 0.12618-0.06836 0.1875-0.02564 0.06129-0.05432 0.12126-0.08594 0.17969-0.0323 0.05836-0.0675 0.11508-0.10547 0.16992-0.03766 0.05538-0.07807 0.10883-0.12109 0.16016-0.0431 0.05108-0.08873 0.09997-0.13672 0.14648-0.04729 0.04604-0.09683 0.08972-0.14844 0.13086-0.05268 0.0418-0.10744 0.08091-0.16406 0.11719-0.05624 0.03609-0.11426 0.06933-0.17383 0.09961-0.05918 0.02968-0.11981 0.05641-0.18164 0.08008-0.06204 0.02463-0.12527 0.04614-0.18945 0.06445-0.06435 0.01757-0.12953 0.03191-0.19531 0.04297-0.06597 0.01114-0.13246 0.01896-0.19922 0.02344-0.02795 0.0025-0.05595 0.0045-0.08398 0.0059h-0.13672c-0.03976-0.000768-0.07949-0.0027-0.11914-0.0059-0.0662-0.0065-0.13204-0.01626-0.19726-0.0293-0.06592-0.01363-0.1311-0.03058-0.19531-0.05078-0.0636-0.01965-0.12618-0.04247-0.1875-0.06836-0.06129-0.02564-0.12126-0.05432-0.17969-0.08594-0.05836-0.0323-0.11508-0.0675-0.16992-0.10547-0.05538-0.03766-0.10883-0.07807-0.16016-0.12109-0.03011-0.02646-0.05942-0.05381-0.08789-0.08203l-0.08789-0.08789c-0.03532-0.0371-0.0692-0.07554-0.10156-0.11523-0.0418-0.05268-0.08091-0.10744-0.11719-0.16406-0.03609-0.05624-0.06933-0.11426-0.09961-0.17383-0.02968-0.05918-0.05641-0.1198-0.08008-0.18164-0.02463-0.06204-0.04614-0.12527-0.06445-0.18945-0.01757-0.06435-0.03191-0.12953-0.04297-0.19531-0.01114-0.06597-0.01896-0.13246-0.02344-0.19922-0.0036-0.04679-0.0056-0.0937-0.0059-0.14062-0.00006-0.06653 0.0032-0.13302 0.0098-0.19922 0.0065-0.0662 0.01626-0.13204 0.0293-0.19727 0.01363-0.06592 0.03058-0.1311 0.05078-0.19531 0.01965-0.0636 0.04247-0.12618 0.06836-0.1875 0.02564-0.06129 0.05432-0.12126 0.08594-0.17969 0.0323-0.05836 0.0675-0.11508 0.10547-0.16992 0.03766-0.05538 0.07807-0.10883 0.12109-0.16016 0.0431-0.05108 0.08873-0.09997 0.13672-0.14648 0.04729-0.04604 0.09683-0.08971 0.14844-0.13086 0.05268-0.0418 0.10744-0.08091 0.16406-0.11719 0.05624-0.03609 0.11426-0.06933 0.17383-0.09961 0.05918-0.02968 0.11981-0.05641 0.18164-0.08008 0.06204-0.02463 0.12527-0.04614 0.18945-0.06445 0.06435-0.01757 0.12953-0.03191 0.19531-0.04297 0.06597-0.01114 0.13246-0.01896 0.19922-0.02344 0.047-0.004 0.094-0.007 0.141-0.009zm-4 2.5 1.1074 0.27734c0.0672 0.25212 0.167 0.4944 0.29688 0.7207l-0.58594 0.97656 0.70703 0.70703 0.97656-0.58594c0.22672 0.13139 0.46967 0.23251 0.72266 0.30078l0.275 1.103h1l0.27734-1.1074c0.25212-0.0672 0.4944-0.167 0.7207-0.29688l0.97656 0.58594 0.70703-0.70703-0.58594-0.97656c0.13139-0.22672 0.23251-0.46967 0.30078-0.72266l1.103-0.275v3.5 1h-2-4-2v-1z"/>
  </g>
 </g>
</svg>
