<?xml version="1.0" encoding="UTF-8"?>
<!-- Created with Inkscape (http://www.inkscape.org/) -->
<svg id="svg4153" width="22" viewBox="0 0 22 22" xmlns="http://www.w3.org/2000/svg" xmlns:dc="http://purl.org/dc/elements/1.1/" xmlns:rdf="http://www.w3.org/1999/02/22-rdf-syntax-ns#" xmlns:cc="http://creativecommons.org/ns#" height="22" version="1.1">
 <metadata id="metadata4159">
  <rdf:RDF>
   <cc:Work rdf:about="">
    <dc:format>image/svg+xml</dc:format>
    <dc:type rdf:resource="http://purl.org/dc/dcmitype/StillImage"/>
    <dc:title/>
   </cc:Work>
  </rdf:RDF>
 </metadata>
 <defs id="defs4157">
  <style id="current-color-scheme" type="text/css">.ColorScheme-Text {
        color:#31363b;
      }
      .ColorScheme-Background {
        color:#eff0f1;
      }
      .ColorScheme-Highlight {
        color:#3daee9;
      }
      .ColorScheme-ViewText {
        color:#31363b;
      }
      .ColorScheme-ViewBackground {
        color:#fcfcfc;
      }
      .ColorScheme-ViewHover {
        color:#93cee9;
      }
      .ColorScheme-ViewFocus{
        color:#3daee9;
      }
      .ColorScheme-ButtonText {
        color:#31363b;
      }
      .ColorScheme-ButtonBackground {
        color:#eff0f1;
      }
      .ColorScheme-ButtonHover {
        color:#93cee9;
      }
      .ColorScheme-ButtonFocus{
        color:#3daee9;
      }</style>
 </defs>
 <g id="kmail">
  <path id="rect4144" fill="#ffffff" class="ColorScheme-Text" d="m1 3v1 8 6 0.41406 0.586h1 6 6 6 1v-0.58594-0.414-6-9h-0.049-0.951-0.463-17.074-0.463-1zm1 1h0.0488l0.2227 0.2227 5.7519 5.7539-2.0234 2.0234-4 4v-4-7.7773-0.2227zm1.4629 0h15.074l-7.537 7.537-7.5371-7.537zm16.488 0h0.049v0.2227 7.7773 4l-4-4-2.023-2.0234 5.752-5.7539 0.222-0.2227zm-11.221 6.6836 1.4531 1.4512 0.81445 0.81445h0.002l0.81641-0.81445 1.4531-1.4512 1.318 1.316 4.951 4.951 0.463 0.463v0.586h-6-6-6v-0.586l0.4629-0.463 4.9512-4.951 1.3164-1.316z"/>
  <rect id="rect4193" height="22" fill="none" width="22" y="0" x="0"/>
 </g>
</svg>
