<?xml version="1.0" encoding="UTF-8"?>
<!-- Created with Inkscape (http://www.inkscape.org/) -->
<svg id="svg3869" height="22" width="22" viewBox="0 0 22 22" xmlns="http://www.w3.org/2000/svg" xmlns:rdf="http://www.w3.org/1999/02/22-rdf-syntax-ns#" xmlns:cc="http://creativecommons.org/ns#" xmlns:dc="http://purl.org/dc/elements/1.1/" version="1.1">
 <defs id="defs3871">
  <style id="current-color-scheme" type="text/css">.ColorScheme-Text {
        color:#31363b;
      }
      .ColorScheme-Background {
        color:#eff0f1;
      }
      .ColorScheme-Highlight {
        color:#3daee9;
      }
      .ColorScheme-ViewText {
        color:#31363b;
      }
      .ColorScheme-ViewBackground {
        color:#fcfcfc;
      }
      .ColorScheme-ViewHover {
        color:#93cee9;
      }
      .ColorScheme-ViewFocus{
        color:#3daee9;
      }
      .ColorScheme-ButtonText {
        color:#31363b;
      }
      .ColorScheme-ButtonBackground {
        color:#eff0f1;
      }
      .ColorScheme-ButtonHover {
        color:#93cee9;
      }
      .ColorScheme-ButtonFocus{
        color:#3daee9;
      }</style>
 </defs>
 <metadata id="metadata3874">
  <rdf:RDF>
   <cc:Work rdf:about="">
    <dc:format>image/svg+xml</dc:format>
    <dc:type rdf:resource="http://purl.org/dc/dcmitype/StillImage"/>
    <dc:title/>
   </cc:Work>
  </rdf:RDF>
 </metadata>
 <g id="layer1" transform="translate(-326 -534.36)">
  <path id="rect3353" d="m341 538.36-12 3.418v1.043 4.5391 0.58203l1 0.28516v2.1328 0.30078l6 1.6992v-1-1.4238l5 1.4238v-1.043-10.914-1.043zm4.0293 0.42773-0.77148 0.63086c1.1373 1.7722 1.7419 3.8337 1.7422 5.9395-0.004 2.1039-0.61142 4.1625-1.75 5.9316l0.7832 0.64258c1.2816-1.9532 1.9651-4.2381 1.9668-6.5742-0.004-2.3352-0.68851-4.6186-1.9707-6.5703zm-5.0293 0.9004v10.344l-10-2.8476v-4.6484l10-2.8476zm2.6894 1.0156-0.78125 0.63867c0.71179 1.2188 1.0885 2.6042 1.0918 4.0156-0.002 1.4119-0.37841 2.798-1.0898 4.0176l0.78125 0.64062c0.85323-1.4042 1.3058-3.0151 1.3086-4.6582-0.004-1.6419-0.45732-3.2515-1.3106-4.6543zm-14.69 1.36l-1 0.28515v0.0117 1 3 1 0.0117l1 0.28516v-0.29688-0.74609-3.5078-0.74609-0.29687zm3 6.4492 4 1.1387v1.4258l-4-1.1328v-1.4316z" class="ColorScheme-Highlight" fill="#56dfe8"/>
  <g id="konv_message">
   <rect id="rect4170" height="22" fill="none" y="534.36" x="326" width="22"/>
  </g>
 </g>
</svg>
