<?xml version="1.0" encoding="UTF-8"?>
<!-- Created with Inkscape (http://www.inkscape.org/) -->
<svg id="svg4153" xmlns:rdf="http://www.w3.org/1999/02/22-rdf-syntax-ns#" xmlns:cc="http://creativecommons.org/ns#" version="1.1" width="22" viewBox="0 0 22 22" height="22" xmlns:dc="http://purl.org/dc/elements/1.1/" xmlns="http://www.w3.org/2000/svg">
 <metadata id="metadata4159">
  <rdf:RDF>
   <cc:Work rdf:about="">
    <dc:format>image/svg+xml</dc:format>
    <dc:type rdf:resource="http://purl.org/dc/dcmitype/StillImage"/>
    <dc:title/>
   </cc:Work>
  </rdf:RDF>
 </metadata>
 <defs id="defs4157">
  <style id="current-color-scheme" type="text/css">.ColorScheme-Text {
        color:#31363b;
      }
      .ColorScheme-Background {
        color:#eff0f1;
      }
      .ColorScheme-Highlight {
        color:#3daee9;
      }
      .ColorScheme-ViewText {
        color:#31363b;
      }
      .ColorScheme-ViewBackground {
        color:#fcfcfc;
      }
      .ColorScheme-ViewHover {
        color:#93cee9;
      }
      .ColorScheme-ViewFocus{
        color:#3daee9;
      }
      .ColorScheme-ButtonText {
        color:#31363b;
      }
      .ColorScheme-ButtonBackground {
        color:#eff0f1;
      }
      .ColorScheme-ButtonHover {
        color:#93cee9;
      }
      .ColorScheme-ButtonFocus{
        color:#3daee9;
      }</style>
 </defs>
 <g id="kopete">
  <path id="rect4144" d="m3 3v12h3v4l4-4h9v-12zm1 1h14v10h-14zm9.2344 0.5293-0.23828 0.47656c1.259 0.9422 2.001 2.4217 2.004 3.9941-0.0028 1.5724-0.74505 3.0519-2.0039 3.9941l0.23828 0.47266c1.693-0.846 2.764-2.575 2.766-4.467-0.001-1.8937-1.072-3.6244-2.766-4.4707zm-7.234 0.4707v2h2v-2zm3 3v2h4v-2zm-3 3v2h2v-2z" class="ColorScheme-Text" fill="#ffffff"/>
  <rect id="rect4186" width="22" x="0" fill="none" height="22" y="0"/>
 </g>
</svg>
