<?xml version="1.0" encoding="UTF-8"?>
<!-- Created with Inkscape (http://www.inkscape.org/) -->
<svg id="svg4153" xmlns:rdf="http://www.w3.org/1999/02/22-rdf-syntax-ns#" xmlns:cc="http://creativecommons.org/ns#" version="1.1" width="22" xmlns:dc="http://purl.org/dc/elements/1.1/" height="22" xmlns="http://www.w3.org/2000/svg" viewBox="0 0 22 22">
 <metadata id="metadata4159">
  <rdf:RDF>
   <cc:Work rdf:about="">
    <dc:format>image/svg+xml</dc:format>
    <dc:type rdf:resource="http://purl.org/dc/dcmitype/StillImage"/>
    <dc:title/>
   </cc:Work>
  </rdf:RDF>
 </metadata>
 <defs id="defs4157">
  <style id="current-color-scheme" type="text/css">.ColorScheme-Text {
        color:#31363b;
      }
      .ColorScheme-Background {
        color:#eff0f1;
      }
      .ColorScheme-Highlight {
        color:#3daee9;
      }
      .ColorScheme-ViewText {
        color:#31363b;
      }
      .ColorScheme-ViewBackground {
        color:#fcfcfc;
      }
      .ColorScheme-ViewHover {
        color:#93cee9;
      }
      .ColorScheme-ViewFocus{
        color:#3daee9;
      }
      .ColorScheme-ButtonText {
        color:#31363b;
      }
      .ColorScheme-ButtonBackground {
        color:#eff0f1;
      }
      .ColorScheme-ButtonHover {
        color:#93cee9;
      }
      .ColorScheme-ButtonFocus{
        color:#3daee9;
      }</style>
 </defs>
 <g id="kpackagekit-important">
  <g id="g4216" fill-rule="evenodd">
   <path id="path4198" d="m51 7-3 3v9h5.0996 3.9 5.0996v-9l-3-3h-2.1-3.9zm0.3 1h3.7 3.7l2 2h-11.4zm1.7 3h4v5l-1-1-1 1-1-1-1 1z" fill="#ffffff" class="ColorScheme-Text"/>
   <path id="path4202" d="m60 3 3 5h-6z" fill="#55e0e9"/>
  </g>
  <rect id="rect4206" width="22" x="44" height="22" y="-2.6645e-15" fill="none"/>
 </g>
 <g id="kpackagekit-security">
  <g id="g4225" fill-rule="evenodd">
   <path id="path4185" d="m29 7-3 3v9h5.0996 3.9 5.0996v-9l-3-3h-2.1-3.9zm0.3 1h3.7 3.7l2 2h-11.4zm1.7 3h4v5l-1-1-1 1-1-1-1 1z" fill="#ffffff" class="ColorScheme-Text"/>
   <path id="path4191" d="m38 3c0 1-2 1-2 1v3c0 1 1 1 2 2 1-1 2-1 2-2v-3s-2 0-2-1z" fill="#55e0e9"/>
  </g>
  <rect id="rect4208" width="22" x="22" height="22" y="-2.6645e-15" fill="none"/>
 </g>
 <g id="kpackagekit-updates">
  <g id="g4220">
   <path id="path4149" d="m7 7-3 3v9h5.0996 3.9004 5.0996v-9l-3-3h-2.1-3.9004zm0.3 1h3.7 3.7l2 2h-11.4zm1.7 3h4v5l-1-1-1 1-1-1-1 1z" fill-rule="evenodd" fill="#ffffff" class="ColorScheme-Text"/>
   <path id="path4180" d="m16 3a3 3 0 0 0 -3 3 3 3 0 0 0 3 3 3 3 0 0 0 3 -3 3 3 0 0 0 -3 -3z" fill="#63d3db"/>
   <path id="path4167" d="m16 4 2 2h-1v2h-2v-2h-1l1-1 1-1z" fill="#93f5fc" class="ColorScheme-Background"/>
  </g>
  <rect id="rect4212" width="22" x="0" height="22" y="-2.6645e-15" fill="none"/>
 </g>
 <g id="kpackagekit-inactive">
  <path id="path4204" d="m-15 7-3 3v9h5.0996 3.9 5.0996v-9l-3-3h-2.0996-3.9zm0.3 1h3.7 3.7l2 2h-11.4zm1.7 3h4v5l-1-1-1 1-1-1-1 1z" fill-rule="evenodd" fill="#ffffff" class="ColorScheme-Text"/>
  <rect id="rect4214" width="22" x="-22" height="22" y="-2.6645e-15" fill="none"/>
 </g>
</svg>
