<?xml version="1.0" encoding="UTF-8"?>
<!-- Created with Inkscape (http://www.inkscape.org/) -->
<svg id="svg4153" xmlns:dc="http://purl.org/dc/elements/1.1/" xmlns="http://www.w3.org/2000/svg" version="1.1" width="22" xmlns:cc="http://creativecommons.org/ns#" xmlns:rdf="http://www.w3.org/1999/02/22-rdf-syntax-ns#" height="22" viewBox="0 0 22 22">
 <metadata id="metadata4159">
  <rdf:RDF>
   <cc:Work rdf:about="">
    <dc:format>image/svg+xml</dc:format>
    <dc:type rdf:resource="http://purl.org/dc/dcmitype/StillImage"/>
    <dc:title/>
   </cc:Work>
  </rdf:RDF>
 </metadata>
 <defs id="defs4157">
  <style id="current-color-scheme" type="text/css">.ColorScheme-Text {
        color:#31363b;
      }
      .ColorScheme-Background {
        color:#eff0f1;
      }
      .ColorScheme-Highlight {
        color:#3daee9;
      }
      .ColorScheme-ViewText {
        color:#31363b;
      }
      .ColorScheme-ViewBackground {
        color:#fcfcfc;
      }
      .ColorScheme-ViewHover {
        color:#93cee9;
      }
      .ColorScheme-ViewFocus{
        color:#3daee9;
      }
      .ColorScheme-ButtonText {
        color:#31363b;
      }
      .ColorScheme-ButtonBackground {
        color:#eff0f1;
      }
      .ColorScheme-ButtonHover {
        color:#93cee9;
      }
      .ColorScheme-ButtonFocus{
        color:#3daee9;
      }</style>
 </defs>
 <g id="kteatime">
  <rect id="rect3825" height="22" y="1.2212e-15" fill-opacity="0" width="22" x="1.2212e-15"/>
  <path id="rect4168" fill="#ffffff" class="ColorScheme-Text" d="m10 2v2h1v-2h-1zm-3 1v1h1v-1h-1zm6 0v1h1v-1h-1zm-8 2v12h12v-3h1c1.108 0 2-0.892 2-2v-4c0-1.108-0.892-2-2-2h-1v-1h-12zm1 1h3v1h-1c-0.554 0-1 0.446-1 1v5c0 0.554 0.446 1 1 1h3c0.554 0 1-0.446 1-1v-5c0-0.554-0.446-1-1-1h-1v-1h6v10h-10v-10zm11 1h1c0.554 0 1 0.446 1 1v4c0 0.554-0.446 1-1 1h-1v-6zm-9 2h3v4h-3v-4zm-5 9v1h16v-1h-16z"/>
 </g>
</svg>
