<?xml version="1.0" encoding="UTF-8"?>
<svg id="svg" xmlns:dc="http://purl.org/dc/elements/1.1/" xmlns:rdf="http://www.w3.org/1999/02/22-rdf-syntax-ns#" height="100%" version="1.1" viewBox="0 0 22 22" xmlns="http://www.w3.org/2000/svg" xmlns:cc="http://creativecommons.org/ns#" width="100%">
 <defs id="defs81">
  <style id="current-color-scheme" type="text/css">.ColorScheme-Text {
        color:#7B7C7E;
      }
      .ColorScheme-Background{
        color:#EFF0F1;
      }
      .ColorScheme-Highlight{
        color:#3DAEE6;
      }
      .ColorScheme-ViewText {
        color:#7B7C7E;
      }
      .ColorScheme-ViewBackground{
        color:#FCFCFC;
      }
      .ColorScheme-ViewHover {
        color:#3DAEE6;
      }
      .ColorScheme-ViewFocus{
        color:#1E92FF;
      }
      .ColorScheme-ButtonText {
        color:#7B7C7E;
      }
      .ColorScheme-ButtonBackground{
        color:#EFF0F1;
      }
      .ColorScheme-ButtonHover {
        color:#3DAEE6;
      }
      .ColorScheme-ButtonFocus{
        color:#1E92FF;
      }</style>
  <style id="current-color-scheme-5" type="text/css">.ColorScheme-Text {
        color:#7B7C7E;
      }
      .ColorScheme-Background{
        color:#EFF0F1;
      }
      .ColorScheme-Highlight{
        color:#3DAEE6;
      }
      .ColorScheme-ViewText {
        color:#7B7C7E;
      }
      .ColorScheme-ViewBackground{
        color:#FCFCFC;
      }
      .ColorScheme-ViewHover {
        color:#3DAEE6;
      }
      .ColorScheme-ViewFocus{
        color:#1E92FF;
      }
      .ColorScheme-ButtonText {
        color:#7B7C7E;
      }
      .ColorScheme-ButtonBackground{
        color:#EFF0F1;
      }
      .ColorScheme-ButtonHover {
        color:#3DAEE6;
      }
      .ColorScheme-ButtonFocus{
        color:#1E92FF;
      }</style>
 </defs>
 <metadata id="metadata34">
  <rdf:RDF>
   <cc:Work rdf:about="">
    <dc:format>image/svg+xml</dc:format>
    <dc:type rdf:resource="http://purl.org/dc/dcmitype/StillImage"/>
    <dc:title/>
   </cc:Work>
  </rdf:RDF>
 </metadata>
 <g id="list-add" transform="translate(-1,1)">
  <rect id="rect3061" height="22" y="-1" fill-opacity="0" width="22" x="1"/>
  <path id="rect4189" d="m10 3v7h-7v1h7v7h1v-7h7v-1h-7v-7h-1z" class="ColorScheme-Text" fill="#ffffff" transform="translate(1,-1)"/>
 </g>
 <g id="list-remove" transform="matrix(1.5 0 0 1.5 -803.43 -917.97)">
  <rect id="rect3021" opacity="0.01" height="14.667" y="611.98" fill-opacity=".0039216" x="554.29" fill="#da4453" width="14.667"/>
  <path id="path4143" d="m561.62 613.98a5.3333 5.3333 0 0 0 -5.3333 5.3333 5.3333 5.3333 0 0 0 5.3333 5.3333 5.3333 5.3333 0 0 0 5.3333 -5.3333 5.3333 5.3333 0 0 0 -5.3333 -5.3333zm0 0.59244a4.7407 4.7407 0 0 1 4.7409 4.7409 4.7407 4.7407 0 0 1 -4.7409 4.7409 4.7407 4.7407 0 0 1 -4.7409 -4.7409 4.7407 4.7407 0 0 1 4.7409 -4.7409z" fill="#ffffff"/>
  <rect id="rect4203" height="10.647" y="829.72" transform="rotate(-45)" x="-41.13" fill="#ffffff" width=".66667"/>
 </g>
</svg>
