<?xml version="1.0" encoding="UTF-8"?>
<svg id="svg" width="100%" height="100%" xmlns="http://www.w3.org/2000/svg" version="1.1" viewBox="0 0 22 22" xmlns:cc="http://creativecommons.org/ns#" xmlns:dc="http://purl.org/dc/elements/1.1/" xmlns:rdf="http://www.w3.org/1999/02/22-rdf-syntax-ns#">
 <defs id="defs81">
  <style id="current-color-scheme" type="text/css">.ColorScheme-Text {
        color:#31363b;
      }
      .ColorScheme-Background{
        color:#EFF0F1;
      }
      .ColorScheme-Highlight{
        color:#3DAEE9;
      }
      .ColorScheme-ViewText {
        color:#31363b;
      }
      .ColorScheme-ViewBackground{
        color:#FCFCFC;
      }
      .ColorScheme-ViewHover {
        color:#3DAEE9;
      }
      .ColorScheme-ViewFocus{
        color:#1E92FF;
      }
      .ColorScheme-ButtonText {
        color:#7B7C7E;
      }
      .ColorScheme-ButtonBackground{
        color:#EFF0F1;
      }
      .ColorScheme-ButtonHover {
        color:#3DAEE6;
      }
      .ColorScheme-ButtonFocus{
        color:#1E92FF;
      }</style>
 </defs>
 <metadata id="metadata34">
  <rdf:RDF>
   <cc:Work rdf:about="">
    <dc:format>image/svg+xml</dc:format>
    <dc:type rdf:resource="http://purl.org/dc/dcmitype/StillImage"/>
    <dc:title/>
   </cc:Work>
  </rdf:RDF>
 </metadata>
 <g id="mail-unread-new" transform="translate(-1,-1)">
  <rect id="rect3784" fill-opacity="0" height="22" width="22" x="41" y="1"/>
  <g id="g2994" transform="matrix(.83333 0 0 .83333 7.8333 1.5)">
   <path id="rect4144-8" fill="#ffffff" d="m41 3v1.2 9.6 7.2 0.49687 0.70313h1.2 7.2 7.2v-1.2h-7.2-7.2v-0.70313l0.55547-0.55547 7.5211-7.5211 1.7438 1.7414 0.97734 0.97734h0.0024l0.97969-0.97734 1.7438-1.7414 1.58 1.579h1.697l-2.428-2.428 6.902-6.9048 0.267-0.2672h0.05859v0.26719 9.3328h1.2v-10.8h-0.05859-1.141-0.555-20.49-0.555-1.2zm1.2 1.2h0.05859l0.26719 0.26719 6.9023 6.9047-7.2281 7.2281v-4.8-9.3328-0.26719zm1.7555 0h18.089l-9.045 9.045-9.045-9.045z" class="ColorScheme-Text"/>
   <path id="path4160-3-3" fill="#6eacb2" transform="matrix(.64572 -.17302 .17302 .64572 -254.32 -276.32)" d="m347.2 549.76-3.0655 0.24535 0.55641 3.0246-2.3411-1.9941-1.7452 2.5321-0.24536-3.0655-3.0246 0.55641 1.9941-2.3411-2.5321-1.7452 3.0655-0.24536-0.55641-3.0246 2.3411 1.9942 1.7452-2.5321 0.24536 3.0655 3.0246-0.55641-1.9941 2.3411z" class="ColorScheme-Highlight"/>
  </g>
 </g>
 <g id="mail-unread" transform="translate(-41,-1)">
  <rect id="rect3805" fill-opacity="0" height="22" width="22" x="41" y="1"/>
  <path id="rect4144-6-3" fill="#ffffff" d="m42 4v1.0019 14.027 0.41485 0.58705h1.0019 19.036v-0.58705-0.41485-1.0019-14.027h-0.049-0.953-17.57-0.464-1.002zm1.0019 1.0019h0.04891l5.986 5.9879-6.0349 6.0349v-12.023zm1.4657 0h15.103l-7.5515 7.5515-7.5515-7.5515zm16.52 0h0.04891v12.023l-6.0349-6.0349 5.986-5.9879zm-11.242 6.6963 2.2738 2.2719 2.2738-2.2719 6.2795 6.2795 0.46377 0.46377v0.58705h-18.034v-0.58705l0.46377-0.46377 6.2795-6.2795z" class="ColorScheme-Text"/>
 </g>
</svg>
