<?xml version="1.0" encoding="UTF-8" standalone="no"?>
<svg
   xmlns:dc="http://purl.org/dc/elements/1.1/"
   xmlns:cc="http://creativecommons.org/ns#"
   xmlns:rdf="http://www.w3.org/1999/02/22-rdf-syntax-ns#"
   xmlns:svg="http://www.w3.org/2000/svg"
   xmlns="http://www.w3.org/2000/svg"
   xmlns:sodipodi="http://sodipodi.sourceforge.net/DTD/sodipodi-0.dtd"
   xmlns:inkscape="http://www.inkscape.org/namespaces/inkscape"
   id="svg"
   width="100%"
   version="1.1"
   viewBox="0 0 22 22"
   height="100%"
   inkscape:version="0.91+devel r"
   sodipodi:docname="notification.svg">
  <sodipodi:namedview
     pagecolor="#ffffff"
     bordercolor="#666666"
     borderopacity="1"
     objecttolerance="10"
     gridtolerance="10"
     guidetolerance="10"
     inkscape:pageopacity="0"
     inkscape:pageshadow="2"
     inkscape:window-width="640"
     inkscape:window-height="480"
     id="namedview29"
     showgrid="false"
     inkscape:pagecheckerboard="true"
     inkscape:zoom="34.136364"
     inkscape:cx="-9.0060707"
     inkscape:cy="4.9067912"
     inkscape:current-layer="svg" />
  <defs
     id="defs81">
    <style
       id="current-color-scheme"
       type="text/css">.ColorScheme-Text {
        color:#7B7C7E;
      }
      .ColorScheme-Background{
        color:#EFF0F1;
      }
      .ColorScheme-Highlight{
        color:#3DAEE6;
      }
      .ColorScheme-ViewText {
        color:#7B7C7E;
      }
      .ColorScheme-ViewBackground{
        color:#FCFCFC;
      }
      .ColorScheme-ViewHover {
        color:#3DAEE6;
      }
      .ColorScheme-ViewFocus{
        color:#1E92FF;
      }
      .ColorScheme-ButtonText {
        color:#7B7C7E;
      }
      .ColorScheme-ButtonBackground{
        color:#EFF0F1;
      }
      .ColorScheme-ButtonHover {
        color:#3DAEE6;
      }
      .ColorScheme-ButtonFocus{
        color:#1E92FF;
      }</style>
  </defs>
  <metadata
     id="metadata34">
    <rdf:RDF>
      <cc:Work
         rdf:about="">
        <dc:format>image/svg+xml</dc:format>
        <dc:type
           rdf:resource="http://purl.org/dc/dcmitype/StillImage" />
        <dc:title />
      </cc:Work>
    </rdf:RDF>
  </metadata>
  <g
     id="notification-progress-active"
     transform="translate(39,-1)">
    <rect
       id="rect3009"
       height="22"
       width="22"
       x="1"
       fill-opacity="0"
       y="1" />
    <rect
       id="rect5921-0"
       x="4"
       ry="8"
       y="4"
       height="16"
       fill="#3daee9"
       width="16" />
  </g>
  <g
     id="notification-inactive"
     transform="translate(-1,-1)">
    <rect
       id="rect3028"
       x="1"
       y="1"
       height="22"
       fill-opacity="0"
       width="22" />
    <path
       id="path3016"
       d="m11 3c-4.432 0-8 3.568-8 8s3.568 8 8 8 8-3.568 8-8-3.568-8-8-8zm-0.15625 1h0.3125c3.793 0 6.844 3.0506 6.844 6.844v0.3125c0 3.793-3.051 6.844-6.844 6.844h-0.3125c-3.7934 0-6.844-3.051-6.844-6.844v-0.3125c0-3.7934 3.0506-6.844 6.844-6.844zm-0.65625 3v5.5938h1.625v-5.5938h-1.625zm0.812 6.406c-0.36819 0-0.8125 0.41306-0.8125 0.78125s0.44431 0.8125 0.8125 0.8125 0.8125-0.44431 0.8125-0.8125-0.44431-0.78125-0.8125-0.78125z"
       fill="#fff"
       transform="translate(1,1)"
       class="ColorScheme-Text" />
  </g>
  <g
     id="notification-progress-inactive"
     transform="translate(39,39)">
    <rect
       id="rect3060"
       height="22"
       width="22"
       x="1"
       fill-opacity="0"
       y="1" />
    <rect
       id="rect5933-8"
       x="4"
       opacity=".4"
       ry="8"
       y="4"
       height="16"
       fill="#fff"
       class="ColorScheme-Text"
       width="16" />
  </g>
  <g
     id="notification-active"
     transform="translate(-1,39)">
    <rect
       id="rect3068"
       x="1"
       y="1"
       height="22"
       fill-opacity="0"
       width="22" />
    <rect
       id="rect4130-82-0"
       height="16"
       ry="8"
       width="16"
       x="4"
       fill="#3daee9"
       y="4" />
    <path
       id="rect4142-6"
       d="m11.203 7.2-0.0026 7.2h1.6l0.0026-7.2zm0.8 8c-0.44182 0-0.8 0.35817-0.8 0.8s0.35818 0.8 0.8 0.8 0.8-0.35817 0.8-0.8-0.35818-0.8-0.8-0.8z"
       fill="#6fe5ed" />
  </g>
  <path
     id="expander-bottom"
     d="m-18 23 2-2 2 2z"
     class="ColorScheme-Text"
     fill="#fff" />
  <path
     id="expander-top"
     fill="#fff"
     d="m-18 17 2 2 2-2z"
     class="ColorScheme-Text" />
  <path
     id="expander-right"
     d="m-13 18-2 2 2 2z"
     class="ColorScheme-Text"
     fill="#fff" />
  <path
     id="expander-left"
     fill="#fff"
     d="m-19 18 2 2-2 2z"
     class="ColorScheme-Text" />
  <g
     id="notification-disabled"
     transform="translate(-1,-41)">
    <rect
       id="rect3022"
       height="22"
       width="22"
       x="1"
       fill-opacity="0"
       y="1" />
    <path
       id="path3024"
       transform="translate(1,1)"
       d="m11 3c-4.432 0-8 3.568-8 8s3.568 8 8 8 8-3.568 8-8-3.568-8-8-8zm-0.15625 1h0.3125c3.793 0 6.844 3.0506 6.844 6.844v0.3125c0 3.793-3.051 6.844-6.844 6.844h-0.3125c-3.7934 0-6.844-3.051-6.844-6.844v-0.3125c0-3.7934 3.0506-6.844 6.844-6.844zm-0.65625 3v5.5938h1.625v-5.5938h-1.625zm0.812 6.406c-0.36819 0-0.8125 0.41306-0.8125 0.78125s0.44431 0.8125 0.8125 0.8125 0.8125-0.44431 0.8125-0.8125-0.44431-0.78125-0.8125-0.78125z"
       class="ColorScheme-Text"
       fill="#fff"
       opacity=".4" />
  </g>
  <g
     id="notification-empty"
     transform="translate(39,-41)">
    <rect
       id="rect3798"
       height="22"
       width="22"
       x="1"
       fill-opacity="0"
       y="1" />
    <path
       id="path3800"
       transform="translate(1,1)"
       d="m11 3c-4.432 0-8 3.568-8 8s3.568 8 8 8 8-3.568 8-8-3.568-8-8-8zm-0.15625 1h0.3125c3.793 0 6.844 3.0506 6.844 6.844v0.3125c0 3.793-3.051 6.844-6.844 6.844h-0.3125c-3.7934 0-6.844-3.051-6.844-6.844v-0.3125c0-3.7934 3.0506-6.844 6.844-6.844z"
       class="ColorScheme-Text"
       fill="#fff" />
  </g>
</svg>
