<?xml version="1.0" encoding="UTF-8"?>
<svg id="svg" version="1.1" viewBox="0 0 22 22" xmlns:cc="http://creativecommons.org/ns#" xmlns:rdf="http://www.w3.org/1999/02/22-rdf-syntax-ns#" xmlns:dc="http://purl.org/dc/elements/1.1/" xmlns="http://www.w3.org/2000/svg" height="100%" width="100%">
 <defs id="defs81">
  <style id="current-color-scheme" type="text/css">.ColorScheme-Text {
        color:#7B7C7E;
      }
      .ColorScheme-Background{
        color:#EFF0F1;
      }
      .ColorScheme-Highlight{
        color:#3DAEE6;
      }
      .ColorScheme-ViewText {
        color:#7B7C7E;
      }
      .ColorScheme-ViewBackground{
        color:#FCFCFC;
      }
      .ColorScheme-ViewHover {
        color:#3DAEE6;
      }
      .ColorScheme-ViewFocus{
        color:#1E92FF;
      }
      .ColorScheme-ButtonText {
        color:#7B7C7E;
      }
      .ColorScheme-ButtonBackground{
        color:#EFF0F1;
      }
      .ColorScheme-ButtonHover {
        color:#3DAEE6;
      }
      .ColorScheme-ButtonFocus{
        color:#1E92FF;
      }</style>
  <style id="style28319" type="text/css">.ColorScheme-Text {
        color:#31363b;
      }
      .ColorScheme-Background {
        color:#eff0f1;
      }
      .ColorScheme-Highlight {
        color:#3daee9;
      }
      .ColorScheme-ViewText {
        color:#31363b;
      }
      .ColorScheme-ViewBackground {
        color:#fcfcfc;
      }
      .ColorScheme-ViewHover {
        color:#93cee9;
      }
      .ColorScheme-ViewFocus{
        color:#3daee9;
      }
      .ColorScheme-ButtonText {
        color:#31363b;
      }
      .ColorScheme-ButtonBackground {
        color:#eff0f1;
      }
      .ColorScheme-ButtonHover {
        color:#93cee9;
      }
      .ColorScheme-ButtonFocus{
        color:#3daee9;
      }</style>
 </defs>
 <metadata id="metadata34">
  <rdf:RDF>
   <cc:Work rdf:about="">
    <dc:format>image/svg+xml</dc:format>
    <dc:type rdf:resource="http://purl.org/dc/dcmitype/StillImage"/>
    <dc:title/>
   </cc:Work>
  </rdf:RDF>
 </metadata>
 <g id="22-22-printer" transform="translate(0,-2)">
  <rect id="rect3009" class="ColorScheme-Background" width="22" height="22" fill-opacity="0" y="2" x="0"/>
  <path id="rect3007" class="ColorScheme-Text" fill="#ffffff" d="m6 3v1 3h-2-1v1 6 1h2v1h1v2 1h1 8 1v-3h1v-1h2v-1-7h-1-2v-4h-1-8-1zm1 1h8v4h-8v-4zm-3 4h1v1h12v-1h1v6h-1v-2h-1-11v1 1h-1v-6zm10 2v1h3v-1h-3zm-7 3h8v5h-8v-5zm1 1v1h6v-1h-6zm0 2v1h6v-1h-6z" transform="translate(0,2)"/>
 </g>
 <g id="printer">
  <path id="rect4172" class="ColorScheme-Text" fill="#ffffff" d="m-23-6v1 5h-4-0.48438-0.516v11 1h1 2v1h2v5h1 6 6 1v-5h2v-1h2 1v-1-11h-0.5156-0.4844-4v-5-1h-7-7zm1 1h6 6v5 1h-6-6v-1-5zm-5 6h2v1h9 9v-1h2v10h-2v-3h-3-6-6-3v3h-2v-10zm17 3v2h4v-2h-4zm-12 5h6 6v2 1 5h-6-6v-5-1-2zm1 2v1h5 5v-1h-5-5zm0 3v1h5 5v-1h-5-5z"/>
  <rect id="rect4208" width="32" height="32" y="-10" fill="none" x="-32"/>
 </g>
</svg>
