<?xml version="1.0" encoding="UTF-8"?>
<svg id="svg2" xmlns:rdf="http://www.w3.org/1999/02/22-rdf-syntax-ns#" xmlns="http://www.w3.org/2000/svg" xmlns:cc="http://creativecommons.org/ns#" height="24" version="1.1" width="24" xmlns:dc="http://purl.org/dc/elements/1.1/">
 <metadata id="metadata7">
  <rdf:RDF>
   <cc:Work rdf:about="">
    <dc:format>image/svg+xml</dc:format>
    <dc:type rdf:resource="http://purl.org/dc/dcmitype/StillImage"/>
    <dc:title/>
   </cc:Work>
  </rdf:RDF>
 </metadata>
 <g id="recorditnow" transform="translate(45 -1032.4)">
  <rect id="rect2987" x="-45" y="1032.4" height="24" rx="0" width="24" ry="0" opacity="0"/>
  <g id="g8817" transform="matrix(.72666 0 0 .77731 12.044 230.07)">
   <g id="g8797" opacity=".90291" transform="translate(-23.983 13.234)" fill="#fff">
    <path id="path8799" d="m-48.874 1043s-0.12627 0.6598 0.83802 0.6598h14.911s1.125 0 1.125-0.6598v-0.6597l5.1263 2.0109-0.12627-8.6087-5 1.9793v-0.6597c0-0.6598-1-0.6598-1-0.6598v-1.3196c0-1.9793-2-2.6391-3-2.6391h-2-5-2c-1 0-3 0.6598-3 2.6391v1.3196s-0.84216 0.063-0.84216 0.7229c0 0.6597-0.03157 5.8748-0.03157 5.8748z"/>
    <path id="path8801" d="m-33 1036.4 5-3v9l-5-3m-15-6h15v9h-15z"/>
   </g>
   <g id="g3792" transform="translate(-23.857 11.972)" fill="#ffffff">
    <path id="path3790" d="m-23.844 5.9688c-1 0-3 1-3 4v2s-1 0-1 1v9s-0.02679 1 0.9375 1h14.938s1.125 0 1.125-1v-1l5 3v-13l-5 3v-1c0-1-1-1-1-1v-2c0-3-2-4-3-4h-2-5-2zm1 1c1.6569 0 3 1.3431 3 3s-1.3431 3-3 3-3-1.3431-3-3 1.3431-3 3-3zm7 0c1.6569 0 3 1.3431 3 3s-1.3431 3-3 3-3-1.3431-3-3 1.3431-3 3-3z" transform="translate(-21.143 1020.4)"/>
    <path id="path3766" d="m-33 1036.4 5-3v9l-5-3m-15-6h15v9h-15z"/>
   </g>
  </g>
 </g>
</svg>
