<?xml version="1.0" encoding="UTF-8"?>
<svg id="svg" xmlns="http://www.w3.org/2000/svg" height="100%" xmlns:dc="http://purl.org/dc/elements/1.1/" width="100%" xmlns:rdf="http://www.w3.org/1999/02/22-rdf-syntax-ns#" xmlns:cc="http://creativecommons.org/ns#" version="1.1" viewBox="0 0 22 22">
 <defs id="defs81">
  <style id="current-color-scheme" type="text/css">.ColorScheme-Text {
        color:#7B7C7E;
      }
      .ColorScheme-Background{
        color:#EFF0F1;
      }
      .ColorScheme-Highlight{
        color:#3DAEE6;
      }
      .ColorScheme-ViewText {
        color:#7B7C7E;
      }
      .ColorScheme-ViewBackground{
        color:#FCFCFC;
      }
      .ColorScheme-ViewHover {
        color:#3DAEE6;
      }
      .ColorScheme-ViewFocus{
        color:#1E92FF;
      }
      .ColorScheme-ButtonText {
        color:#7B7C7E;
      }
      .ColorScheme-ButtonBackground{
        color:#EFF0F1;
      }
      .ColorScheme-ButtonHover {
        color:#3DAEE6;
      }
      .ColorScheme-ButtonFocus{
        color:#1E92FF;
      }</style>
 </defs>
 <metadata id="metadata34">
  <rdf:RDF>
   <cc:Work rdf:about="">
    <dc:format>image/svg+xml</dc:format>
    <dc:type rdf:resource="http://purl.org/dc/dcmitype/StillImage"/>
    <dc:title/>
   </cc:Work>
  </rdf:RDF>
 </metadata>
 <g id="slc-like" transform="translate(-1,-41)">
  <rect id="rect3791" fill-opacity="0" height="22" width="22" y="1" x="1"/>
  <path id="path3795" class="ColorScheme-Text" fill="#ffffff" d="m8 4c-2.7614 0-5 2.2386-5 5 0 5 7 9 9 11 2-2 9-6 9-11 0-2.7614-2.239-5-5-5-1.64 0-3.088 0.7808-4 2-0.912-1.2192-2.3604-2-4-2zm0 2c3 0 4 2 4 2s1-2 4-2c1.6569 0 3 1.3431 3 3 0 4-5 7-7 9-2-2-7-5-7-9 0-1.6569 1.3431-3 3-3z"/>
 </g>
 <g id="slc-share" transform="translate(39,-1)">
  <rect id="rect3833" fill-opacity="0" height="22" width="22" y="1" x="1"/>
  <path id="path3837" class="ColorScheme-Text" fill="#ffffff" d="m18 4c-1.6569 0-3 1.3431-3 3 0 0.087382 0.02393 0.16451 0.03125 0.25l-6.75 2.8125c-0.55-0.6468-1.3649-1.062-2.281-1.062-1.6569 0-3 1.343-3 3 0 1.6569 1.3431 3 3 3 0.91614 0 1.731-0.41522 2.2812-1.0625l6.75 2.8125c-0.007 0.085-0.031 0.163-0.031 0.25 0 1.6569 1.3431 3 3 3s3-1.3431 3-3-1.3431-3-3-3c-0.91614 0-1.731 0.41522-2.2812 1.0625l-6.7502-2.812c0.0073-0.085 0.0312-0.163 0.0312-0.25s-0.0239-0.165-0.0312-0.25l6.75-2.8125c0.55 0.6473 1.365 1.0625 2.281 1.0625 1.657 0 3-1.3431 3-3s-1.343-3-3-3zm0 2c0.55228 0 1 0.44772 1 1s-0.44772 1-1 1c-0.552 0-1-0.4477-1-1s0.448-1 1-1zm-12 5c0.55228 0 1 0.44772 1 1s-0.44772 1-1 1-1-0.44772-1-1 0.44772-1 1-1zm12 5c0.55228 0 1 0.44772 1 1s-0.44772 1-1 1-1-0.44772-1-1 0.44772-1 1-1z"/>
 </g>
 <g id="slc-connect" transform="translate(-1,-1)">
  <rect id="rect3009" fill-opacity="0" height="22" width="22" y="1" x="1"/>
  <path id="rect3845" class="ColorScheme-Text" fill="#ffffff" d="m14 4c-0.779 0.7785-0.937 2.1687-0.031 3.6875l-4.2503 2.8435c-0.5284-0.213-1.0955-0.372-1.6562-0.375-0.7288-0.003-1.4375 0.219-2.0625 0.844l3 3-4 4-1 2 2-1 4-4 3 3c1.107-1.107 0.96475-2.5078 0.46875-3.7188l2.8438-4.25c1.518 0.906 2.908 0.748 3.687-0.031l-6-6z"/>
 </g>
</svg>
