<?xml version="1.0" encoding="UTF-8"?>
<svg id="svg14997" width="24" xmlns:dc="http://purl.org/dc/elements/1.1/" version="1.1" xmlns:rdf="http://www.w3.org/1999/02/22-rdf-syntax-ns#" xmlns:cc="http://creativecommons.org/ns#" xmlns="http://www.w3.org/2000/svg" height="24">
 <metadata id="metadata15003">
  <rdf:RDF>
   <cc:Work rdf:about="">
    <dc:format>image/svg+xml</dc:format>
    <dc:type rdf:resource="http://purl.org/dc/dcmitype/StillImage"/>
    <dc:title/>
   </cc:Work>
  </rdf:RDF>
 </metadata>
 <g id="smb4k">
  <rect id="rect16227" width="24" x="0" y="0" fill-opacity="0" height="24"/>
  <path id="path15823" d="m8.5928 12.828c-0.379-0.181 0.1571-1.538 1.025-2.172 0.8682-0.634 2.0112-0.84 2.1692-0.601 0.5478 0.82659-0.38801 1.0406-1.6042 1.7515-1.2429 0.72656-1.2116 1.2019-1.5906 1.0211z" fill="#d7d7d7"/>
  <g id="g3910" transform="matrix(1 0 0 .98805 27.229 1.8145)" fill="#ffffff">
   <path id="path3898" d="m9.3067 14.863a9.8707 9.0811 0 1 1 -19.741 0 9.8707 9.0811 0 1 1 19.741 0z" transform="matrix(.72516 0 0 .78177 -14.591 -3.5198)"/>
   <rect id="rect3900" width="1.8834" x="-15.881" y="14.775" height="3.8406"/>
   <rect id="rect3902" width="16" x="-23" y="17.3" height="1.6352"/>
   <rect id="rect3904" width="6.9562" x="-18.476" y="16.961" height="2.2557"/>
  </g>
 </g>
</svg>
