<?xml version="1.0" encoding="UTF-8"?>
<!-- Created with Inkscape (http://www.inkscape.org/) -->
<svg id="svg4153" height="22" width="22" xmlns="http://www.w3.org/2000/svg" version="1.1" xmlns:cc="http://creativecommons.org/ns#" xmlns:rdf="http://www.w3.org/1999/02/22-rdf-syntax-ns#" viewBox="0 0 22 22" xmlns:dc="http://purl.org/dc/elements/1.1/">
 <metadata id="metadata4159">
  <rdf:RDF>
   <cc:Work rdf:about="">
    <dc:format>image/svg+xml</dc:format>
    <dc:type rdf:resource="http://purl.org/dc/dcmitype/StillImage"/>
    <dc:title/>
   </cc:Work>
  </rdf:RDF>
 </metadata>
 <defs id="defs4157">
  <style id="current-color-scheme" type="text/css">.ColorScheme-Text {
        color:#31363b;
      }
      .ColorScheme-Background {
        color:#eff0f1;
      }
      .ColorScheme-Highlight {
        color:#3daee9;
      }
      .ColorScheme-ViewText {
        color:#31363b;
      }
      .ColorScheme-ViewBackground {
        color:#fcfcfc;
      }
      .ColorScheme-ViewHover {
        color:#93cee9;
      }
      .ColorScheme-ViewFocus{
        color:#3daee9;
      }
      .ColorScheme-ButtonText {
        color:#31363b;
      }
      .ColorScheme-ButtonBackground {
        color:#eff0f1;
      }
      .ColorScheme-ButtonHover {
        color:#93cee9;
      }
      .ColorScheme-ButtonFocus{
        color:#3daee9;
      }</style>
 </defs>
 <g id="software-updates-important">
  <path id="path4198" d="m51 7-3 3v9h5.0996 3.9 5.0996v-9l-3-3h-2.1-3.9zm0.3 1h3.7 3.7l2 2h-11.4zm1.7 3h4v5l-1-1-1 1-1-1-1 1z" class="ColorScheme-Text" fill="#ffffff" fill-rule="evenodd"/>
  <path id="path4202" d="m60 3 3 5h-6z" fill="#52e3ec" fill-rule="evenodd"/>
  <rect id="rect4206" height="22" y="-2.6645e-15" width="22" x="44" fill="none"/>
 </g>
 <g id="software-updates-security">
  <path id="path4185" d="m29 7-3 3v9h5.0996 3.9 5.0996v-9l-3-3h-2.1-3.9zm0.3 1h3.7 3.7l2 2h-11.4zm1.7 3h4v5l-1-1-1 1-1-1-1 1z" class="ColorScheme-Text" fill="#ffffff" fill-rule="evenodd"/>
  <path id="path4191" d="m38 3c0 1-2 1-2 1v3c0 1 1 1 2 2 1-1 2-1 2-2v-3s-2 0-2-1z" fill="#52e3ec" fill-rule="evenodd"/>
  <rect id="rect4208" height="22" fill="none" width="22" x="22" y="-2.6645e-15"/>
 </g>
 <g id="software-updates-updates">
  <path id="path4149" d="m7 7-3 3v9h5.0996 3.9004 5.0996v-9l-3-3h-2.1-3.9004zm0.3 1h3.7 3.7l2 2h-11.4zm1.7 3h4v5l-1-1-1 1-1-1-1 1z" class="ColorScheme-Text" fill="#ffffff" fill-rule="evenodd"/>
  <path id="path4180" d="m16 3a3 3 0 0 0 -3 3 3 3 0 0 0 3 3 3 3 0 0 0 3 -3 3 3 0 0 0 -3 -3z" fill="#52e3ec"/>
  <path id="path4167" class="ColorScheme-Background" d="m16 4 2 2h-1v2h-2v-2h-1l1-1 1-1z" fill="currentColor"/>
  <rect id="rect4212" height="22" fill="none" width="22" x="0" y="-2.6645e-15"/>
 </g>
 <g id="software-updates-inactive">
  <path id="path4204" d="m-15 7-3 3v9h5.0996 3.9 5.0996v-9l-3-3h-2.0996-3.9zm0.3 1h3.7 3.7l2 2h-11.4zm1.7 3h4v5l-1-1-1 1-1-1-1 1z" class="ColorScheme-Text" fill="#ffffff" fill-rule="evenodd"/>
  <rect id="rect4214" height="22" y="-2.6645e-15" width="22" x="-22" fill="none"/>
 </g>
 <g id="software-updates-release" transform="translate(0,22)">
  <path id="path4164" d="m7 7-3 3v9h5.0996 3.9004 5.0996v-9l-3-3h-2.1-3.9004zm0.3 1h3.7 3.7l2 2h-11.4zm1.7 3h4v5l-1-1-1 1-1-1-1 1z" fill="#1db694" fill-rule="evenodd"/>
  <path id="path4166" d="m16 3a3 3 0 0 0 -3 3 3 3 0 0 0 3 3 3 3 0 0 0 3 -3 3 3 0 0 0 -3 -3z" fill="#1db694"/>
  <path id="path4168" d="m16 4 2 2h-1v2h-2v-2h-1l1-1 1-1z" class="ColorScheme-Background" fill="currentColor"/>
  <rect id="rect4170" height="22" y="-2.6645e-15" width="22" x="0" fill="none"/>
 </g>
 <g id="software-updates-additional" transform="translate(-22,22)">
  <path id="path4186" d="m7 7-3 3v9h5.0996 3.9004 5.0996v-9l-3-3h-2.1-3.9004zm0.3 1h3.7 3.7l2 2h-11.4zm1.7 3h4v5l-1-1-1 1-1-1-1 1z" class="ColorScheme-Highlight" fill="#52e3ec" fill-rule="evenodd"/>
  <path id="path4188" class="ColorScheme-Highlight" d="m16 3a3 3 0 0 0 -3 3 3 3 0 0 0 3 3 3 3 0 0 0 3 -3 3 3 0 0 0 -3 -3z" fill="#52e3ec"/>
  <path id="path4190" class="ColorScheme-Background" d="m16 4 2 2h-1v2h-2v-2h-1l1-1 1-1z" fill="currentColor"/>
  <rect id="rect4192" height="22" fill="none" width="22" x="0" y="-2.6645e-15"/>
 </g>
</svg>
