<?xml version="1.0" encoding="UTF-8"?>
<svg id="svg14997" height="24" xmlns:rdf="http://www.w3.org/1999/02/22-rdf-syntax-ns#" version="1.1" xmlns="http://www.w3.org/2000/svg" width="24" xmlns:dc="http://purl.org/dc/elements/1.1/" xmlns:cc="http://creativecommons.org/ns#">
 <metadata id="metadata15003">
  <rdf:RDF>
   <cc:Work rdf:about="">
    <dc:format>image/svg+xml</dc:format>
    <dc:type rdf:resource="http://purl.org/dc/dcmitype/StillImage"/>
    <dc:title/>
   </cc:Work>
  </rdf:RDF>
 </metadata>
 <g id="steam" transform="translate(2)">
  <g id="g3767" fill="#fff" opacity=".91748" transform="matrix(.90094 0 0 .91753 -16.029 -4.5565)">
   <rect id="rect3769" height="15.564" width="5.5439" y="-19.607" x="32.369" transform="matrix(.65074 .75930 -.74322 .66905 0 0)"/>
   <path id="path3771" d="m42.508 14.822a3.1017 3.8898 0 1 1 -6.2034 0 3.1017 3.8898 0 1 1 6.2034 0z" transform="matrix(1.4568 0 0 1.1905 -21.734 -2.591)"/>
   <path id="path3773" d="m42.508 14.822a3.1017 3.8898 0 1 1 -6.2034 0 3.1017 3.8898 0 1 1 6.2034 0z" transform="matrix(1.1061 0 0 .93329 -17.536 9.5396)"/>
   <path id="path3775" d="m22.888 22.844s-4.7584-3.4285-5.4208-3.8471c-0.66237-0.41868-0.33457-4.2246-0.01053-3.9782 0.32404 0.24631 7.5167 5.3086 7.5167 5.3086z"/>
  </g>
  <rect id="rect3802" height="24" width="24" y="0" x="-2" opacity="0"/>
  <g id="g3783" transform="matrix(.69241 0 0 .72379 -9.827 -1.687)">
   <rect id="rect3763" height="15.564" width="5.5439" fill="#ffffff" y="-19.607" x="32.369" transform="matrix(.65074 .75930 -.74322 .66905 0 0)"/>
   <path id="path3761" fill="#ffffff" d="m42.508 14.822a3.1017 3.8898 0 1 1 -6.2034 0 3.1017 3.8898 0 1 1 6.2034 0z" transform="matrix(1.4568 0 0 1.1905 -21.734 -2.591)"/>
   <path id="path3765" fill="#ffffff" d="m42.508 14.822a3.1017 3.8898 0 1 1 -6.2034 0 3.1017 3.8898 0 1 1 6.2034 0z" transform="matrix(1.1061 0 0 .93329 -17.536 9.5396)"/>
   <path id="path3769" d="m22.888 22.844s-4.7584-3.4285-5.4208-3.8471c-0.66237-0.41868-0.33457-4.2246-0.01053-3.9782 0.32404 0.24631 7.5167 5.3086 7.5167 5.3086z" fill="#ffffff"/>
   <path id="path3779" fill="none" d="m42.508 14.822a3.1017 3.8898 0 1 1 -6.2034 0 3.1017 3.8898 0 1 1 6.2034 0z" stroke="#6b7879" transform="matrix(.88050 0 0 .67870 .94934 4.9694)"/>
   <path id="path3781" fill="none" d="m27.794 23.375a1.7499 1.7098 0 0 1 -3.4998 0 1.7499 1.7098 0 1 1 3.4998 0z" stroke="#6b7879" stroke-width=".49798"/>
  </g>
 </g>
</svg>
