<?xml version="1.0" encoding="UTF-8" standalone="no"?>
<!-- Generator: Adobe Illustrator 19.0.0, SVG Export Plug-In . SVG Version: 6.00 Build 0)  -->

<svg
   xmlns:dc="http://purl.org/dc/elements/1.1/"
   xmlns:cc="http://creativecommons.org/ns#"
   xmlns:rdf="http://www.w3.org/1999/02/22-rdf-syntax-ns#"
   xmlns:svg="http://www.w3.org/2000/svg"
   xmlns="http://www.w3.org/2000/svg"
   xmlns:sodipodi="http://sodipodi.sourceforge.net/DTD/sodipodi-0.dtd"
   xmlns:inkscape="http://www.inkscape.org/namespaces/inkscape"
   version="1.1"
   id="Layer_1"
   x="0px"
   y="0px"
   viewBox="0 0 32 32.000004"
   xml:space="preserve"
   sodipodi:docname="telegram.svg"
   width="32"
   height="32.000004"
   inkscape:version="0.92.1 r"><metadata
     id="metadata41"><rdf:RDF><cc:Work
         rdf:about=""><dc:format>image/svg+xml</dc:format><dc:type
           rdf:resource="http://purl.org/dc/dcmitype/StillImage" /><dc:title></dc:title></cc:Work></rdf:RDF></metadata><defs
     id="defs39" /><sodipodi:namedview
     pagecolor="#ffffff"
     bordercolor="#666666"
     borderopacity="1"
     objecttolerance="10"
     gridtolerance="10"
     guidetolerance="10"
     inkscape:pageopacity="0"
     inkscape:pageshadow="2"
     inkscape:window-width="1365"
     inkscape:window-height="810"
     id="namedview37"
     showgrid="false"
     inkscape:pagecheckerboard="true"
     inkscape:showpageshadow="false"
     fit-margin-top="5"
     fit-margin-left="5"
     fit-margin-right="5"
     fit-margin-bottom="5"
     inkscape:zoom="4.2563249"
     inkscape:cx="76.593059"
     inkscape:cy="13.112857"
     inkscape:window-x="0"
     inkscape:window-y="0"
     inkscape:window-maximized="0"
     inkscape:current-layer="Layer_1" /><g
     id="Telegram"
     transform="matrix(0.04296878,0,0,0.04935157,4.9999991,3.3659501)"><path
       id="path2"
       d="M 165.323,267.452 395.89,125.446 c 4.144,-2.545 8.407,3.058 4.849,6.359 L 210.454,308.684 c -6.688,6.226 -11.003,14.558 -12.225,23.602 l -6.482,48.036 c -0.858,6.414 -9.868,7.05 -11.638,0.843 L 155.18,293.57 c -2.855,-9.992 1.306,-20.663 10.143,-26.118 z"
       style="fill:#c3c3c7"
       inkscape:connector-curvature="0" /><path
       id="path4"
       d="m 9.043,246.86 117.975,44.032 45.664,146.854 c 2.922,9.405 14.423,12.882 22.057,6.641 l 65.761,-53.61 c 6.893,-5.617 16.712,-5.897 23.916,-0.667 l 118.61,86.113 c 8.166,5.936 19.736,1.461 21.784,-8.407 L 511.698,49.869 C 513.934,39.09 503.342,30.097 493.078,34.067 L 8.905,220.845 c -11.948,4.608 -11.844,21.524 0.138,26.015 z m 156.28,20.592 230.567,-142.006 c 4.144,-2.545 8.407,3.058 4.849,6.359 L 210.454,308.684 c -6.688,6.226 -11.003,14.558 -12.225,23.602 l -6.482,48.036 c -0.858,6.414 -9.868,7.05 -11.638,0.843 L 155.18,293.57 c -2.855,-9.992 1.306,-20.663 10.143,-26.118 z"
       style="fill:#dedee0"
       inkscape:connector-curvature="0" /></g><g
     id="g6"
     transform="translate(4.9999794,-451.89159)" /><g
     id="g8"
     transform="translate(4.9999794,-451.89159)" /><g
     id="g10"
     transform="translate(4.9999794,-451.89159)" /><g
     id="g12"
     transform="translate(4.9999794,-451.89159)" /><g
     id="g14"
     transform="translate(4.9999794,-451.89159)" /><g
     id="g16"
     transform="translate(4.9999794,-451.89159)" /><g
     id="g18"
     transform="translate(4.9999794,-451.89159)" /><g
     id="g20"
     transform="translate(4.9999794,-451.89159)" /><g
     id="g22"
     transform="translate(4.9999794,-451.89159)" /><g
     id="g24"
     transform="translate(4.9999794,-451.89159)" /><g
     id="g26"
     transform="translate(4.9999794,-451.89159)" /><g
     id="g28"
     transform="translate(4.9999794,-451.89159)" /><g
     id="g30"
     transform="translate(4.9999794,-451.89159)" /><g
     id="g32"
     transform="translate(4.9999794,-451.89159)" /><g
     id="g34"
     transform="translate(4.9999794,-451.89159)" /></svg>