<?xml version="1.0" encoding="UTF-8"?>
<svg id="svg" height="100%" width="100%" version="1.1" xmlns="http://www.w3.org/2000/svg" xmlns:cc="http://creativecommons.org/ns#" xmlns:rdf="http://www.w3.org/1999/02/22-rdf-syntax-ns#" viewBox="0 0 22 22" xmlns:dc="http://purl.org/dc/elements/1.1/">
 <defs id="defs81">
  <style id="current-color-scheme" type="text/css">.ColorScheme-Text {
        color:#7B7C7E;
      }
      .ColorScheme-Background{
        color:#EFF0F1;
      }
      .ColorScheme-Highlight{
        color:#3DAEE6;
      }
      .ColorScheme-ViewText {
        color:#7B7C7E;
      }
      .ColorScheme-ViewBackground{
        color:#FCFCFC;
      }
      .ColorScheme-ViewHover {
        color:#3DAEE6;
      }
      .ColorScheme-ViewFocus{
        color:#1E92FF;
      }
      .ColorScheme-ButtonText {
        color:#7B7C7E;
      }
      .ColorScheme-ButtonBackground{
        color:#EFF0F1;
      }
      .ColorScheme-ButtonHover {
        color:#3DAEE6;
      }
      .ColorScheme-ButtonFocus{
        color:#1E92FF;
      }</style>
  <style id="style35077" type="text/css">.ColorScheme-Text {
        color:#31363b;
      }
      .ColorScheme-Background {
        color:#eff0f1;
      }
      .ColorScheme-Highlight {
        color:#3daee9;
      }
      .ColorScheme-ViewText {
        color:#31363b;
      }
      .ColorScheme-ViewBackground {
        color:#fcfcfc;
      }
      .ColorScheme-ViewHover {
        color:#93cee9;
      }
      .ColorScheme-ViewFocus{
        color:#3daee9;
      }
      .ColorScheme-ButtonText {
        color:#31363b;
      }
      .ColorScheme-ButtonBackground {
        color:#eff0f1;
      }
      .ColorScheme-ButtonHover {
        color:#93cee9;
      }
      .ColorScheme-ButtonFocus{
        color:#3daee9;
      }</style>
 </defs>
 <metadata id="metadata34">
  <rdf:RDF>
   <cc:Work rdf:about="">
    <dc:format>image/svg+xml</dc:format>
    <dc:type rdf:resource="http://purl.org/dc/dcmitype/StillImage"/>
    <dc:title/>
   </cc:Work>
  </rdf:RDF>
 </metadata>
 <g id="wallet-open">
  <path id="rect4188" d="m3 3v4h-1v1 10c0 0.554 0.446 1 1 1h16 1v-1-10c0-0.554-0.446-1-1-1h-5v-4zm1 1h9v3h-2.5078c-0.47-0.6273-1.2079-0.9975-1.992-1-0.7862 0.0006-1.5263 0.371-1.998 1h-2.502zm-1 4h1 2.0508 4.8942 2.055 1 5v3h-2-5c-1.108 0-2 0.892-2 2s0.892 2 2 2h5 2v3h-16zm10 4c0.55228 0 1 0.44772 1 1s-0.44772 1-1 1-1-0.44772-1-1 0.44772-1 1-1z" fill="#ffffff" class="ColorScheme-Text"/>
  <rect id="rect4216" fill="none" height="22" width="22" y="0" x="0"/>
 </g>
 <g id="wallet-closed">
  <path id="path4200" d="m24 7v1 10c0 0.554 0.446 1 1 1h16 1v-1-10c0-0.554-0.446-1-1-1h-16zm1 1h16v3h-2-5c-1.108 0-2 0.892-2 2s0.892 2 2 2h5 2v3h-16zm10 4c0.55228 0 1 0.44772 1 1s-0.44772 1-1 1-1-0.44772-1-1 0.44772-1 1-1z" fill="#ffffff" class="ColorScheme-Text"/>
  <rect id="rect4222" fill="none" height="22" width="22" y="0" x="22"/>
 </g>
</svg>
