<?xml version="1.0" encoding="UTF-8" standalone="no"?>
<!-- Created with Inkscape (http://www.inkscape.org/) -->

<svg
   xmlns:dc="http://purl.org/dc/elements/1.1/"
   xmlns:cc="http://creativecommons.org/ns#"
   xmlns:rdf="http://www.w3.org/1999/02/22-rdf-syntax-ns#"
   xmlns:svg="http://www.w3.org/2000/svg"
   xmlns="http://www.w3.org/2000/svg"
   xmlns:sodipodi="http://sodipodi.sourceforge.net/DTD/sodipodi-0.dtd"
   xmlns:inkscape="http://www.inkscape.org/namespaces/inkscape"
   id="svg3869"
   height="22"
   width="22"
   version="1.1"
   viewBox="0 0 22 22"
   inkscape:version="0.91+devel r"
   sodipodi:docname="window.svg">
  <sodipodi:namedview
     pagecolor="#ffffff"
     bordercolor="#666666"
     borderopacity="1"
     objecttolerance="10"
     gridtolerance="10"
     guidetolerance="10"
     inkscape:pageopacity="0"
     inkscape:pageshadow="2"
     inkscape:window-width="640"
     inkscape:window-height="480"
     id="namedview25"
     showgrid="false"
     inkscape:pagecheckerboard="true"
     inkscape:zoom="12.306667"
     inkscape:cx="-15.5"
     inkscape:cy="-5.4999854"
     inkscape:current-layer="svg3869" />
  <defs
     id="defs3871">
    <style
       id="current-color-scheme"
       type="text/css">.ColorScheme-Text {
        color:#31363b;
      }
      .ColorScheme-Background {
        color:#eff0f1;
      }
      .ColorScheme-Highlight {
        color:#3daee9;
      }
      .ColorScheme-ViewText {
        color:#31363b;
      }
      .ColorScheme-ViewBackground {
        color:#fcfcfc;
      }
      .ColorScheme-ViewHover {
        color:#93cee9;
      }
      .ColorScheme-ViewFocus{
        color:#3daee9;
      }
      .ColorScheme-ButtonText {
        color:#31363b;
      }
      .ColorScheme-ButtonBackground {
        color:#eff0f1;
      }
      .ColorScheme-ButtonHover {
        color:#93cee9;
      }
      .ColorScheme-ButtonFocus{
        color:#3daee9;
      }</style>
    <style
       id="current-color-scheme-8"
       type="text/css">.ColorScheme-Text {
        color:#7B7C7E;
      }
      .ColorScheme-Background{
        color:#EFF0F1;
      }
      .ColorScheme-Highlight{
        color:#3DAEE6;
      }
      .ColorScheme-ViewText {
        color:#7B7C7E;
      }
      .ColorScheme-ViewBackground{
        color:#FCFCFC;
      }
      .ColorScheme-ViewHover {
        color:#3DAEE6;
      }
      .ColorScheme-ViewFocus{
        color:#1E92FF;
      }
      .ColorScheme-ButtonText {
        color:#7B7C7E;
      }
      .ColorScheme-ButtonBackground{
        color:#EFF0F1;
      }
      .ColorScheme-ButtonHover {
        color:#3DAEE6;
      }
      .ColorScheme-ButtonFocus{
        color:#1E92FF;
      }</style>
  </defs>
  <metadata
     id="metadata3874">
    <rdf:RDF>
      <cc:Work
         rdf:about="">
        <dc:format>image/svg+xml</dc:format>
        <dc:type
           rdf:resource="http://purl.org/dc/dcmitype/StillImage" />
        <dc:title />
      </cc:Work>
    </rdf:RDF>
  </metadata>
  <g
     id="edit-delete"
     transform="translate(-326,-534.36)">
    <rect
       style="fill:none"
       y="534.35999"
       x="326"
       width="22"
       height="22"
       id="rect4169" />
    <circle
       style="color:#eff0f1;fill:#e9e9e9;fill-opacity:1"
       cx="337"
       r="6"
       cy="545.35999"
       class="ColorScheme-Background"
       id="path4145" />
    <circle
       r="0"
       cy="-509.56"
       cx="277.56"
       id="circle16" />
    <path
       style="fill:#b25b5b;fill-opacity:1"
       inkscape:connector-curvature="0"
       d="m 337,537.36 a 8,8 0 0 0 -8,8 8,8 0 0 0 8,8 8,8 0 0 0 8,-8 8,8 0 0 0 -8,-8 z m -3.293,4 3.29,3.3 3.29,-3.3 0.71,0.71 -3.29,3.29 3.29,3.3 -0.71,0.7 -3.29,-3.29 -3.29,3.29 -0.71,-0.7 3.29,-3.3 -3.29,-3.29 0.70703,-0.70703 z"
       id="path4144" />
  </g>
  <g
     transform="translate(35.02,-33.84)"
     id="window-pin">
    <rect
       style="fill-opacity:0"
       y="44"
       x="-46"
       width="8"
       height="8"
       id="rect3022" />
    <path
       style="color:#7b7c7e;fill:#ffffff"
       inkscape:connector-curvature="0"
       d="m -41,44 c -0.38925,0.38925 -0.46835,1.0843 -0.01563,1.8438 l -2.125,1.4219 c -0.2642,-0.1066 -0.5478,-0.18609 -0.82812,-0.1875 -0.364,-0.002 -0.719,0.11 -1.031,0.422 l 1.5,1.5 -2,2 -0.5,1 1,-0.5 2,-2 1.5,1.5 c 0.55348,-0.55348 0.48237,-1.2539 0.23438,-1.8594 l 1.4219,-2.125 c 0.76,0.452 1.455,0.373 1.844,-0.016 z"
       class="ColorScheme-Text"
       id="rect3845" />
  </g>
  <g
     transform="translate(35.02,-33.84)"
     id="window-unpin">
    <path
       style="color:#3daee6;fill:#58dde6"
       inkscape:connector-curvature="0"
       d="m -61,44 c -0.38925,0.38925 -0.46835,1.0843 -0.01563,1.8438 l -2.125,1.4219 c -0.2642,-0.1066 -0.5478,-0.18609 -0.82812,-0.1875 -0.364,-0.002 -0.719,0.11 -1.031,0.422 l 1.5,1.5 -2,2 -0.5,1 1,-0.5 2,-2 1.5,1.5 c 0.55348,-0.55348 0.48237,-1.2539 0.23438,-1.8594 l 1.4219,-2.125 c 0.76,0.452 1.455,0.373 1.844,-0.016 z"
       class="ColorScheme-Highlight"
       id="path3024" />
    <rect
       style="fill-opacity:0"
       y="44"
       x="-66"
       width="8"
       height="8"
       id="rect3030" />
  </g>
  <g
     transform="translate(-339,-538.36)"
     id="window-list">
    <rect
       style="opacity:0"
       y="561.35999"
       x="286"
       width="32"
       ry="0"
       height="32"
       id="rect3004" />
    <path
       style="color:#7b7c7e;fill:#ffffff"
       inkscape:connector-curvature="0"
       d="m -36,31 v 10 h 10 V 31 Z m 1,1 h 8 v 8 h -8 z"
       transform="translate(326,534.36)"
       class="ColorScheme-Text"
       id="rect3008" />
    <path
       style="color:#7b7c7e;fill:#ffffff"
       inkscape:connector-curvature="0"
       d="m -22,31 v 10 h 10 V 31 Z m 1,1 h 8 v 8 h -8 z"
       transform="translate(326,534.36)"
       class="ColorScheme-Text"
       id="rect3010" />
    <path
       style="color:#7b7c7e;fill:#ffffff"
       inkscape:connector-curvature="0"
       d="m -36,45 v 10 h 10 V 45 Z m 1,1 h 8 v 8 h -8 z"
       transform="translate(326,534.36)"
       class="ColorScheme-Text"
       id="rect3012" />
    <path
       style="color:#7b7c7e;fill:#ffffff"
       inkscape:connector-curvature="0"
       d="m -22,45 v 10 h 10 V 45 Z m 1,1 h 8 v 8 h -8 z"
       transform="translate(326,534.36)"
       class="ColorScheme-Text"
       id="rect3014" />
  </g>
</svg>
