<?xml version="1.0" encoding="UTF-8"?>
<!-- Created with Inkscape (http://www.inkscape.org/) -->
<svg id="svg7229" xmlns:dc="http://purl.org/dc/elements/1.1/" version="1.0" height="44" xmlns:cc="http://creativecommons.org/ns#" xmlns:rdf="http://www.w3.org/1999/02/22-rdf-syntax-ns#" viewBox="0 0 45.999996 44" width="46" xmlns="http://www.w3.org/2000/svg">
 <defs id="defs7231">
  <style id="current-color-scheme" type="text/css">.ColorScheme-Text {
        color:#000000;
      }
      .ColorScheme-Background{
        color:#E9E8E8;
      }
      .ColorScheme-ViewText {
        color:#000000;
      }
      .ColorScheme-ViewBackground{
        color:#ffffff;
      }
      .ColorScheme-ViewHover {
        color:#000000;
      }
      .ColorScheme-ViewFocus{
        color:#5a5a5a;
      }
      .ColorScheme-ButtonText {
        color:#000000;
      }
      .ColorScheme-ButtonBackground{
        color:#E9E8E8;
      }
      .ColorScheme-ButtonHover {
        color:#1489ff;
      }
      .ColorScheme-ButtonFocus{
        color:#2B74C7;
      }</style>
  <style id="style36399" type="text/css">.ColorScheme-Text {
        color:#31363b;
      }
      .ColorScheme-Background {
        color:#eff0f1;
      }
      .ColorScheme-Highlight {
        color:#3daee9;
      }
      .ColorScheme-ViewText {
        color:#31363b;
      }
      .ColorScheme-ViewBackground {
        color:#fcfcfc;
      }
      .ColorScheme-ViewHover {
        color:#93cee9;
      }
      .ColorScheme-ViewFocus{
        color:#3daee9;
      }
      .ColorScheme-ButtonText {
        color:#31363b;
      }
      .ColorScheme-ButtonBackground {
        color:#eff0f1;
      }
      .ColorScheme-ButtonHover {
        color:#93cee9;
      }
      .ColorScheme-ButtonFocus{
        color:#3daee9;
      }</style>
 </defs>
 <metadata id="metadata7234">
  <rdf:RDF>
   <cc:Work rdf:about="">
    <dc:format>image/svg+xml</dc:format>
    <dc:type rdf:resource="http://purl.org/dc/dcmitype/StillImage"/>
    <dc:title/>
   </cc:Work>
  </rdf:RDF>
 </metadata>
 <g id="layer1" transform="translate(-277.55 -368.51)">
  <g id="zoom-fit-height" transform="translate(25.013 25)">
   <path id="path4246" d="m253.52 366.51v1h10 10v-1h-20zm10 1-3 3h2v3.1875c-1.1583 0.41552-2 1.5112-2 2.8125s0.84166 2.397 2 2.8125v3.1875h-2l3 3 3-3h-2v-3.1875c1.1584-0.41551 2-1.5112 2-2.8125s-0.84165-2.397-2-2.8125v-3.1875h2l-3-3zm0 18h-10v1h20v-1h-10zm0-11c1.1046 0 2 0.89543 2 2s-0.89543 2-2 2-2-0.89543-2-2 0.89544-2 2-2z" fill="#ffffff" class="ColorScheme-Text"/>
   <circle id="path3044" transform="translate(252.52 365.51)" cy="11" class="ColorScheme-Text" r="1" fill="#ffffff" cx="11.013"/>
   <rect id="rect3046" y=".000004" fill-opacity="0" transform="translate(252.52 365.51)" x=".012515" width="22" height="22"/>
  </g>
  <g id="zoom-fit-width" transform="rotate(90 275.54 413.51)">
   <path id="path3823" d="m253.52 366.51v1h10 10v-1h-20zm10 1-3 3h2v3.1875c-1.1583 0.41552-2 1.5112-2 2.8125s0.84166 2.397 2 2.8125v3.1875h-2l3 3 3-3h-2v-3.1875c1.1584-0.41551 2-1.5112 2-2.8125s-0.84165-2.397-2-2.8125v-3.1875h2l-3-3zm0 18h-10v1h20v-1h-10zm0-11c1.1046 0 2 0.89543 2 2s-0.89543 2-2 2-2-0.89543-2-2 0.89544-2 2-2z" fill="#ffffff" class="ColorScheme-Text"/>
   <circle id="path3825" cx="11.013" cy="11" class="ColorScheme-Text" r="1" fill="#ffffff" transform="translate(252.52 365.51)"/>
   <rect id="rect3827" y=".000004" fill-opacity="0" height="22" x=".012515" width="22" transform="translate(252.52 365.51)"/>
  </g>
  <g id="16-16-zoom-fit-height" transform="translate(45.012518,6e-6)">
   <path id="path4248" d="m256.52 369.51v1h7 7v-1h-14zm7 1-2 2h1s0.007 1.1284 0 2.2812c-0.5969 0.34604-1 0.97915-1 1.7188 0 0.7396 0.4031 1.3727 1 1.7188 0.007 1.1862 0 2.3125 0 2.3125h-1l1.9688 1.9688h-6.9375v1h13.969v-1h-6.9688l1.9688-1.9688-1.0312-0.0312v-2.25c0.61694-0.34059 1.0312-0.99545 1.0312-1.75s-0.41431-1.4094-1.0312-1.75v-2.2188l1.0312-0.0312-2-2zm-0.125 5.0312h0.25c0.4881 0.0662 0.875 0.46249 0.875 0.96875 0 0.55228-0.44772 1-1 1s-1-0.44772-1-1c0-0.50626 0.3869-0.90253 0.875-0.96875z" fill="#ffffff" class="ColorScheme-Text"/>
   <rect id="rect3841" y="0.000006" fill-opacity="0" transform="translate(255.52 368.51)" x=".012518" width="16" height="16"/>
  </g>
  <g id="16-16-zoom-fit-width" transform="rotate(90 275.54 388.51)">
   <path id="path3849" d="m256.52 369.51v1h7 7v-1h-14zm7 1-2 2h1s0.007 1.1284 0 2.2812c-0.5969 0.34604-1 0.97915-1 1.7188 0 0.7396 0.4031 1.3727 1 1.7188 0.007 1.1862 0 2.3125 0 2.3125h-1l1.9688 1.9688h-6.9375v1h13.969v-1h-6.9688l1.9688-1.9688-1.0312-0.0312v-2.25c0.61694-0.34059 1.0312-0.99545 1.0312-1.75s-0.41431-1.4094-1.0312-1.75v-2.2188l1.0312-0.0312-2-2zm-0.125 5.0312h0.25c0.4881 0.0662 0.875 0.46249 0.875 0.96875 0 0.55228-0.44772 1-1 1s-1-0.44772-1-1c0-0.50626 0.3869-0.90253 0.875-0.96875z" fill="#ffffff" class="ColorScheme-Text"/>
   <rect id="rect3851" y="0.000006" fill-opacity="0" height="16" x=".012518" width="16" transform="translate(255.52 368.51)"/>
  </g>
 </g>
</svg>
